<svg width="1920" height="399" viewBox="0 0 1920 399" fill="none" xmlns="http://www.w3.org/2000/svg">
<path d="M1337.62 405.919V405.922L646.937 405.993L652.893 199.552V143.463H678.726V99.6568H730.262V136.839H746.001V68.0715H749.424V63.2644H750.038V68.0715H762.468V63.2644H763.085V68.0715H780.68V63.2644H781.297V68.0715H792.375V63.2644H792.985V68.0715H797.534V132.266H814.93V121.882L835.444 121.974V105.149H839.569V101.823H840.119V105.149H855.962V105.155H859.131V101.82H859.677V105.155H863.497V138.609H887.92V150.921H901.499V143.772H914.092V115.387H920.373V102.145H921.322V115.387H936.369V90.5714H937.846V115.39H947.802V115.044H947.785V111.895H947.802V108.915H947.785V103.952H947.802V100.786H947.785V95.8226H947.802V92.6563H947.785V87.6966H947.802V84.2727H947.785V79.3164H947.802V74.9568H947.785V70.0005H947.802V66.7121H950.768V63H951.242V66.7121H973.221V63H973.692V66.7121H977.706V92.6597L980.526 92.6766V92.6597H980.502V87.6966H980.526V84.2727H980.502V79.3164H980.526V75.906H980.502V70.9429H980.526V70.9294H1007.18V70.9429H1011.76C1011.99 71.0751 1012.23 71.2073 1012.47 71.3396V104.43H1017.38V99.6602H1073.63V136.842H1090.81V68.0715H1094.54V63.2644H1095.21V68.0715H1108.77V63.2644H1109.45V68.0715H1128.65V63.2644H1129.33V68.0715H1141.42V63.2644H1142.08V68.0715H1147.05V132.266H1166.04V121.882L1188.43 121.974V105.152H1192.94V101.823H1193.54V105.152H1210.82V105.155H1214.28V101.82H1214.87V105.155H1219.04V138.612H1245.7V150.921H1260.52V143.772H1274.26V115.383H1281.12V115.329H1282.15V115.383H1298.58V106.403H1300.19V115.383H1308.27C1307.4 122.97 1306.09 130.713 1304.36 138.612C1303.33 143.267 1302.15 147.975 1300.81 152.732C1265.65 277.615 1406.21 283.253 1337.62 405.919Z" fill="#DFEBFA"/>
<path d="M653.683 406L654.066 405.922L-11 405.997L-5.04433 199.555V143.463H20.7884V99.6568H72.3252V136.839H88.0635V68.0715H91.487V63.2644H92.1006V68.0715H104.531V63.2644H105.147V68.0715H122.743V63.2644H123.36V68.0715H134.438V63.2644H135.048V68.0715H139.597V132.266H156.993V121.882L177.507 121.974V105.149H181.632V101.823H182.181V105.149H198.025V105.155H201.194V101.82H201.74V105.155H205.56V138.609H229.983V150.921H243.562V143.772H256.154V115.387H262.435V102.145H263.385V115.387H278.431V90.5714H279.909V115.39H289.865V115.044H289.848V111.895H289.865V108.915H289.848V103.952H289.865V100.786H289.848V95.8226H289.865V92.6563H289.848V87.6966H289.865V84.2727H289.848V79.3164H289.865V74.9568H289.848V70.0005H289.865V66.7121H292.831V63H293.305V66.7121H315.284V63H315.755V66.7121H319.769V92.6597L322.589 92.6766V92.6597H322.565V87.6966H322.589V84.2727H322.565V79.3164H322.589V75.906H322.565V70.9429H322.589V70.9294H349.238V70.9429H353.818C354.052 71.0751 354.292 71.2073 354.533 71.3396V104.43H359.438V99.6602H415.69V136.842H432.869V68.0715H436.601V63.2644H437.275V68.0715H450.837V63.2644H451.509V68.0715H470.718V63.2644H471.389V68.0715H483.48V63.2644H484.148V68.0715H489.117V132.266H508.103V121.882L530.492 121.974V105.152H535V101.823H535.6V105.152H552.884V105.155H556.345V101.82H556.938V105.155H561.107V138.612H587.76V150.921H602.583V143.772H616.328V115.383H623.182V102.145H624.22V115.383H640.646V90.568H642.256V115.383H653.723C653.727 115.502 653.703 405.997 653.683 406Z" fill="#DFEBFA"/>
<path d="M1919.62 406L1920 405.922L1254.93 405.993L1260.89 199.552V143.463H1286.72V99.6568H1338.26V136.839H1354V68.0715H1357.42V63.2644H1358.03V68.0715H1370.46V63.2644H1371.08V68.0715H1388.68V63.2644H1389.29V68.0715H1400.37V63.2644H1400.98V68.0715H1405.53V132.266H1422.93V121.882L1443.44 121.974V105.149H1447.57V101.823H1448.12V105.149H1463.96V105.155H1467.13V101.82H1467.67V105.155H1471.49V138.609H1495.92V150.921H1509.5V143.772H1522.09V115.387H1528.37V102.145H1529.32V115.387H1544.37V90.5714H1545.84V115.39H1555.8V115.044H1555.78V111.895H1555.8V108.915H1555.78V103.952H1555.8V100.786H1555.78V95.8226H1555.8V92.6563H1555.78V87.6966H1555.8V84.2727H1555.78V79.3164H1555.8V74.9568H1555.78V70.0005H1555.8V66.7121H1558.76V63H1559.24V66.7121H1581.22V63H1581.69V66.7121H1585.7V92.6597L1588.52 92.6766V92.6597H1588.5V87.6966H1588.52V84.2727H1588.5V79.3164H1588.52V75.906H1588.5V70.9429H1588.52V70.9294H1615.17V70.9429H1619.75C1619.99 71.0751 1620.23 71.2073 1620.47 71.3396V104.43H1625.37V99.6602H1681.62V136.842H1698.8V68.0715H1702.53V63.2644H1703.21V68.0715H1716.77V63.2644H1717.44V68.0715H1736.65V63.2644H1737.32V68.0715H1749.41V63.2644H1750.08V68.0715H1755.05V132.266H1774.04V121.882L1796.43 121.974V105.152H1800.93V101.823H1801.53V105.152H1818.82V105.155H1822.28V101.82H1822.87V105.155H1827.04V138.612H1853.69V150.921H1868.52V143.772H1882.26V115.383H1889.12V102.145H1890.15V115.383H1906.58V90.568H1908.19V115.383H1919.66C1919.66 115.502 1919.63 405.997 1919.62 406Z" fill="#DFEBFA"/>
<path d="M1116.27 0V62.0108C1116.27 66.8455 1115.09 70.7895 1113.65 70.7895H1113.28C1111.83 70.7895 1110.66 66.8455 1110.66 62.0108V0.701754C1112.52 0.452092 1114.39 0.212551 1116.27 0Z" fill="#9FC1F4"/>
<path d="M1112 55.8706C1091.56 55.8706 1075 73.3908 1075 95.0002H1149C1149 73.3908 1132.43 55.8706 1112 55.8706Z" fill="#FF9843"/>
<path d="M1114.95 56.3494C1113.89 56.1166 1112.8 55.9951 1111.7 55.9951C1098.38 55.9951 1087.59 73.458 1087.59 94.9998H1094.09C1094.09 75.2428 1103.17 58.9168 1114.95 56.3494Z" fill="#FFC48A"/>
<g clip-path="url(#clip0_833_61475)">
<path d="M1250.23 354.116C1250.23 354.116 1242.83 345.506 1249.77 340.036C1249.77 340.036 1254.84 336.974 1258.98 337.222C1258.98 337.222 1253.12 347.023 1255.01 347.999C1256.91 348.975 1260.75 336.607 1260.75 336.607C1260.75 336.607 1272.3 335.489 1276.01 337.272C1276.01 337.272 1266.14 345.326 1268.22 345.807C1270.3 346.287 1280.96 338.38 1280.96 338.38C1280.96 338.38 1291.7 340.203 1291.13 346.74C1290.55 353.276 1286.85 355.294 1285.22 355.12C1283.6 354.945 1274.08 351.322 1273.87 352.652C1273.67 353.982 1279.4 358.326 1283.41 358.531C1283.41 358.531 1275.83 366.863 1270.8 364.458C1265.77 362.053 1265.33 358.243 1262.2 356.814C1259.06 355.385 1256.38 355.388 1257.68 356.847C1258.97 358.306 1264.65 359.722 1266.45 362.888C1268.24 366.054 1269.85 368.188 1264.64 367.407C1259.44 366.625 1250.97 362.825 1250.6 358.473C1250.23 354.116 1250.23 354.116 1250.23 354.116Z" fill="#77A4E5"/>
<path d="M1285.85 346.916C1285.85 346.916 1256.67 345.794 1250.23 354.118C1250.23 354.118 1248.8 358.374 1244.42 362.25L1243.73 364.109C1243.73 364.109 1248.79 358.791 1250.6 358.47C1250.6 358.47 1247.77 348.158 1285.85 346.916Z" fill="#77A4E5"/>
<path d="M1244.42 362.25C1244.42 362.25 1238.15 366.87 1237.72 375.124L1238.85 375.225C1238.85 375.225 1240.85 366.691 1244.47 363.353C1248.09 360.015 1244.42 362.25 1244.42 362.25Z" fill="#77A4E5"/>
<path d="M1224.35 343.288C1224.35 343.288 1236.13 336.713 1230.63 327.79C1230.63 327.79 1226.24 322.31 1221.53 320.901C1221.53 320.901 1224.04 334.207 1221.53 334.521C1219.01 334.835 1219.8 319.493 1219.8 319.493C1219.8 319.493 1207.4 313.543 1202.53 314.013C1202.53 314.013 1210.23 327.006 1207.71 326.695C1205.2 326.384 1196.57 313.232 1196.57 313.232C1196.57 313.232 1183.85 310.883 1181.82 318.398C1179.78 325.913 1183.07 329.668 1184.95 330.139C1186.84 330.609 1198.92 330.452 1198.61 332.018C1198.3 333.583 1190.13 336.089 1185.58 334.68C1185.58 334.68 1190.61 347.048 1197.2 346.421C1203.79 345.794 1205.83 341.725 1209.91 341.412C1213.99 341.098 1216.98 342.196 1214.94 343.29C1212.89 344.385 1205.99 343.65 1202.69 346.444C1199.4 349.238 1196.73 350.96 1202.85 352.214C1208.97 353.466 1219.96 352.685 1222.16 347.986C1224.35 343.288 1224.35 343.288 1224.35 343.288Z" fill="#77A4E5"/>
<path d="M1187.62 320.745C1187.62 320.745 1220.59 331.39 1224.35 343.288C1224.35 343.288 1224.2 348.611 1227.49 354.715V357.064C1227.49 357.064 1224.04 349.081 1222.16 347.984C1222.16 347.984 1229.53 337.651 1187.62 320.745Z" fill="#77A4E5"/>
<path d="M1227.49 354.715C1227.49 354.715 1232.58 362.415 1229.68 371.786L1228.37 371.435C1228.37 371.435 1229.64 361.112 1226.98 355.921C1224.32 350.73 1227.49 354.715 1227.49 354.715Z" fill="#77A4E5"/>
<path d="M1243.08 334.22C1243.08 334.22 1227.56 325.552 1234.81 313.791C1234.81 313.791 1240.6 306.569 1246.81 304.71C1246.81 304.71 1243.5 322.252 1246.81 322.664C1250.12 323.076 1249.08 302.854 1249.08 302.854C1249.08 302.854 1265.43 295.013 1271.84 295.632C1271.84 295.632 1261.7 312.759 1265.02 312.347C1268.33 311.935 1279.7 294.6 1279.7 294.6C1279.7 294.6 1296.46 291.505 1299.15 301.41C1301.84 311.315 1297.5 316.269 1295.02 316.888C1292.53 317.508 1276.6 317.3 1277.01 319.364C1277.43 321.427 1288.19 324.73 1294.19 322.871C1294.19 322.871 1287.57 339.174 1278.88 338.349C1270.18 337.525 1267.5 332.159 1262.12 331.747C1256.74 331.335 1252.81 332.779 1255.5 334.222C1258.19 335.666 1267.29 334.695 1271.63 338.38C1275.98 342.064 1279.5 344.335 1271.43 345.986C1263.36 347.637 1248.88 346.605 1245.98 340.415C1243.08 334.225 1243.08 334.22 1243.08 334.22Z" fill="#9FC1F4"/>
<path d="M1291.5 304.503C1291.5 304.503 1248.05 318.535 1243.08 334.22C1243.08 334.22 1243.29 341.237 1238.94 349.284V352.379C1238.94 352.379 1243.5 341.854 1245.98 340.41C1245.98 340.41 1236.25 326.791 1291.5 304.503Z" fill="#9FC1F4"/>
<path d="M1238.94 349.284C1238.94 349.284 1232.24 359.431 1236.06 371.787L1237.79 371.324C1237.79 371.324 1236.11 357.717 1239.62 350.874C1243.13 344.032 1238.94 349.284 1238.94 349.284Z" fill="#9FC1F4"/>
<path d="M1242.56 398.575C1259.34 398.575 1272.95 385.001 1272.95 368.259H1212.16C1212.16 385.004 1225.77 398.575 1242.56 398.575Z" fill="#9FC1F4"/>
<path d="M1250.04 398.343C1248.8 398.497 1247.54 398.575 1246.26 398.575C1229.47 398.575 1215.86 385.001 1215.86 368.259H1223.42C1223.42 383.727 1235.03 396.489 1250.04 398.343Z" fill="#AFCDFB"/>
<path d="M1273.65 368.259H1211.16V369.189H1273.65V368.259Z" fill="#9FC1F4"/>
<path d="M1101.05 397.085L1071.18 273.438L1073.27 268.57L1102.86 397.07C1102.93 397.399 1102.68 397.713 1102.34 397.713H1101.85C1101.47 397.715 1101.14 397.455 1101.05 397.085Z" fill="#77A4E5"/>
<path d="M966.248 397.715C965.635 397.715 965.168 397.167 965.267 396.562L974.065 343.379H977.835L967.344 396.818C967.242 397.339 966.783 397.715 966.248 397.715Z" fill="#77A4E5"/>
<path d="M1050.64 397.715C1050.03 397.715 1049.56 397.167 1049.66 396.562L1058.46 343.379H1062.23L1051.74 396.818C1051.63 397.339 1051.17 397.715 1050.64 397.715Z" fill="#77A4E5"/>
<path d="M1071.1 343.49H966.038L987.804 207.383H1092.87L1071.1 343.49Z" fill="#F5FBFF"/>
<path d="M1078.96 342.451H958.298V346.454H1078.96V342.451Z" fill="#77A4E5"/>
<path d="M1029.41 235.861C1029.33 236.938 1029.17 237.998 1028.94 239.03C1026.75 248.758 1018.07 256.21 1008.25 256.227C997.395 256.245 989.266 247.159 990.095 235.93C990.925 224.7 1000.4 215.584 1011.26 215.566C1013.53 215.561 1015.69 215.958 1017.67 216.694C1018.56 217.022 1019.41 217.419 1020.23 217.877C1021.98 218.871 1023.55 220.153 1024.87 221.67C1025.61 222.512 1026.26 223.43 1026.84 224.406C1027.17 224.973 1027.48 225.559 1027.75 226.164C1028.51 227.848 1029.04 229.676 1029.29 231.605C1029.42 232.571 1029.48 233.568 1029.47 234.582C1029.46 235.004 1029.44 235.429 1029.41 235.861Z" fill="#BDD1F9"/>
<path d="M1027.75 226.164L1009.76 235.894C1009.76 235.894 1017.18 222.854 1020.23 217.875C1021.98 218.868 1023.55 220.15 1024.87 221.668C1025.61 222.51 1026.26 223.428 1026.84 224.404C1027.17 224.97 1027.48 225.557 1027.75 226.164Z" fill="white"/>
<path d="M1029.62 223.701L1013.18 232.589C1013.18 232.589 1019.96 220.676 1022.75 216.13C1024.35 217.038 1025.78 218.208 1026.99 219.594C1027.66 220.365 1028.26 221.202 1028.78 222.095C1029.09 222.613 1029.37 223.147 1029.62 223.701Z" fill="#F99746"/>
<path d="M1062.74 333.143L976.26 333.138L985.015 283.373L1071.49 283.378L1062.74 333.143ZM976.957 332.637L1062.22 332.642L1070.79 283.879L985.537 283.874L976.957 332.637Z" fill="#BDD1F9"/>
<path d="M1057.58 326.32L980.885 326.315C980.885 326.315 994.489 319.037 998.221 319.419C1001.95 319.801 1007.32 322.747 1010.77 322.861C1014.21 322.975 1017.95 312.647 1021.79 313.135C1025.63 313.621 1027.07 322.757 1029.06 321.864C1031.05 320.972 1037.02 320.585 1040.46 321.864C1043.89 323.144 1048.9 317.798 1051.93 317.965C1054.95 318.132 1057.58 326.32 1057.58 326.32Z" fill="#F99746"/>
<path d="M999.327 311.692H984.678L984.814 310.918H999.463L999.327 311.692Z" fill="#F99746"/>
<path d="M999.035 313.348H984.386L984.523 312.572L999.172 312.574L999.035 313.348Z" fill="#F99746"/>
<path d="M985.273 301.37L1061.97 301.375C1061.97 301.375 1050.93 294.097 1047.06 294.476C1043.19 294.858 1036.79 297.802 1033.3 297.915C1029.82 298.029 1029.71 287.702 1025.7 288.187C1021.69 288.673 1017.04 297.809 1015.36 296.917C1013.69 296.024 1007.85 295.637 1003.96 296.917C1000.08 298.196 996.946 292.85 993.865 293.017C990.783 293.184 985.273 301.37 985.273 301.37Z" fill="#BDD1F9"/>
<path d="M1003.46 288.17H988.815L988.952 287.394L1003.6 287.396L1003.46 288.17Z" fill="#BDD1F9"/>
<path d="M1003.17 289.826L988.524 289.824L988.66 289.05H1003.31L1003.17 289.826Z" fill="#BDD1F9"/>
<path d="M990.245 276.432H986.881L989.804 260.708H993.168L990.245 276.432Z" fill="#BDD1F9"/>
<path d="M994.826 276.432H991.465L993.729 264.254H997.09L994.826 276.432Z" fill="#BDD1F9"/>
<path d="M999.41 276.432H996.046L998.406 263.73H1001.77L999.41 276.432Z" fill="#BDD1F9"/>
<path d="M1003.99 276.432H1000.63L1002.42 266.77H1005.79L1003.99 276.432Z" fill="#BDD1F9"/>
<path d="M1008.58 276.432H1005.21L1007.14 266.067H1010.5L1008.58 276.432Z" fill="#BDD1F9"/>
<path d="M1013.16 276.432H1009.79L1011.29 268.393H1014.65L1013.16 276.432Z" fill="#BDD1F9"/>
<path d="M1035.24 276.432H1031.88L1034.8 260.708H1038.17L1035.24 276.432Z" fill="#F99746"/>
<path d="M1039.83 276.432H1036.46L1038.73 264.254H1042.09L1039.83 276.432Z" fill="#F99746"/>
<path d="M1044.41 276.432H1041.05L1043.41 263.73H1046.77L1044.41 276.432Z" fill="#F99746"/>
<path d="M1048.99 276.432H1045.63L1047.42 266.77H1050.79L1048.99 276.432Z" fill="#F99746"/>
<path d="M1053.57 276.432H1050.21L1052.14 266.067H1055.5L1053.57 276.432Z" fill="#F99746"/>
<path d="M1058.16 276.432H1054.79L1056.29 268.393H1059.65L1058.16 276.432Z" fill="#F99746"/>
<path d="M1051.44 225.11H1040.49L1040.77 223.613H1051.72L1051.44 225.11Z" fill="#BDD1F9"/>
<path d="M1064.87 225.11H1052.78L1053.07 223.613H1065.16L1064.87 225.11Z" fill="#BDD1F9"/>
<path d="M1073.49 225.11H1065.78L1066.07 223.613H1073.77L1073.49 225.11Z" fill="#BDD1F9"/>
<path d="M1080.69 225.11H1074.74L1075.02 223.613H1080.97L1080.69 225.11Z" fill="#BDD1F9"/>
<path d="M1050.24 231.492H1039.29L1039.57 229.998H1050.52L1050.24 231.492Z" fill="#BDD1F9"/>
<path d="M1063.67 231.492H1051.58L1051.86 229.998H1063.95L1063.67 231.492Z" fill="#BDD1F9"/>
<path d="M1072.29 231.492H1064.58L1064.86 229.998H1072.57L1072.29 231.492Z" fill="#BDD1F9"/>
<path d="M1079.49 231.492H1073.54L1073.82 229.998H1079.77L1079.49 231.492Z" fill="#BDD1F9"/>
<path d="M1057.95 221.618H1041.15L1041.43 220.123H1058.23L1057.95 221.618Z" fill="#BDD1F9"/>
<path d="M1069.23 221.618H1059.55L1059.83 220.123H1069.51L1069.23 221.618Z" fill="#BDD1F9"/>
<path d="M1081.35 221.618H1070.6L1070.88 220.123H1081.64L1081.35 221.618Z" fill="#BDD1F9"/>
<path d="M1056.67 228.407H1039.87L1040.15 226.91H1056.95L1056.67 228.407Z" fill="#BDD1F9"/>
<path d="M1067.96 228.407H1058.27L1058.55 226.91H1068.24L1067.96 228.407Z" fill="#BDD1F9"/>
<path d="M1080.08 228.407H1069.32L1069.6 226.91H1080.36L1080.08 228.407Z" fill="#BDD1F9"/>
<path d="M1049.04 237.877H1038.09L1038.37 236.38H1049.32L1049.04 237.877Z" fill="#BDD1F9"/>
<path d="M1062.47 237.877H1050.38L1050.66 236.38H1062.75L1062.47 237.877Z" fill="#BDD1F9"/>
<path d="M1071.09 237.877H1063.38L1063.66 236.38H1071.37L1071.09 237.877Z" fill="#BDD1F9"/>
<path d="M1078.28 237.877H1072.34L1072.62 236.38H1078.57L1078.28 237.877Z" fill="#BDD1F9"/>
<path d="M1055.47 234.789H1038.67L1038.95 233.292H1055.75L1055.47 234.789Z" fill="#BDD1F9"/>
<path d="M1066.75 234.789H1057.07L1057.35 233.292H1067.03L1066.75 234.789Z" fill="#BDD1F9"/>
<path d="M1078.87 234.789H1068.12L1068.4 233.292H1079.16L1078.87 234.789Z" fill="#BDD1F9"/>
<path d="M1047.91 243.86H1036.96L1037.24 242.365H1048.19L1047.91 243.86Z" fill="#BDD1F9"/>
<path d="M1061.34 243.86H1049.25L1049.53 242.365H1061.62L1061.34 243.86Z" fill="#BDD1F9"/>
<path d="M1069.96 243.86H1062.25L1062.53 242.365H1070.24L1069.96 243.86Z" fill="#BDD1F9"/>
<path d="M1077.16 243.86H1071.21L1071.49 242.365H1077.44L1077.16 243.86Z" fill="#BDD1F9"/>
<path d="M1054.34 240.775H1037.54L1037.82 239.278H1054.62L1054.34 240.775Z" fill="#BDD1F9"/>
<path d="M1065.63 240.775H1055.94L1056.22 239.278H1065.91L1065.63 240.775Z" fill="#BDD1F9"/>
<path d="M1077.75 240.775H1066.99L1067.27 239.278H1078.03L1077.75 240.775Z" fill="#BDD1F9"/>
<path d="M1022.99 263.048H1017.63L1017.77 262.317H1023.13L1022.99 263.048Z" fill="#BDD1F9"/>
<path d="M1029.57 263.048H1023.65L1023.78 262.317H1029.7L1029.57 263.048Z" fill="#BDD1F9"/>
<path d="M1022.4 266.173H1017.04L1017.18 265.44H1022.54L1022.4 266.173Z" fill="#BDD1F9"/>
<path d="M1028.98 266.173H1023.06L1023.2 265.44H1029.11L1028.98 266.173Z" fill="#BDD1F9"/>
<path d="M1026.18 261.338H1017.95L1018.09 260.607H1026.31L1026.18 261.338Z" fill="#BDD1F9"/>
<path d="M1031.7 261.338H1026.96L1027.1 260.607H1031.84L1031.7 261.338Z" fill="#BDD1F9"/>
<path d="M1025.55 264.661H1017.33L1017.46 263.93H1025.69L1025.55 264.661Z" fill="#BDD1F9"/>
<path d="M1031.07 264.661H1026.33L1026.47 263.93H1031.21L1031.07 264.661Z" fill="#BDD1F9"/>
<path d="M1065.93 263.048H1060.56L1060.7 262.317H1066.06L1065.93 263.048Z" fill="#BDD1F9"/>
<path d="M1072.5 263.048H1066.58L1066.72 262.317H1072.64L1072.5 263.048Z" fill="#BDD1F9"/>
<path d="M1065.34 266.173H1059.98L1060.12 265.44H1065.48L1065.34 266.173Z" fill="#BDD1F9"/>
<path d="M1071.91 266.173H1066L1066.13 265.44H1072.05L1071.91 266.173Z" fill="#BDD1F9"/>
<path d="M1069.11 261.338H1060.89L1061.03 260.607H1069.25L1069.11 261.338Z" fill="#BDD1F9"/>
<path d="M1074.63 261.338H1069.89L1070.03 260.607H1074.77L1074.63 261.338Z" fill="#BDD1F9"/>
<path d="M1068.48 264.661H1060.26L1060.4 263.93H1068.62L1068.48 264.661Z" fill="#BDD1F9"/>
<path d="M1074.01 264.661H1069.27L1069.41 263.93H1074.15L1074.01 264.661Z" fill="#BDD1F9"/>
<path d="M1094.44 395.697C1094.25 398.257 1090.63 398.284 1086.53 397.809C1082.42 397.334 1083.51 398.37 1077.76 398.451C1072.01 398.532 1070.03 396.636 1069.75 395.816C1069.5 395.088 1072.28 394.476 1075.24 393.758C1075.61 393.669 1075.98 393.576 1076.36 393.48C1079.7 392.633 1081.91 390.139 1084.77 387.962C1087.48 385.899 1090.97 378.434 1090.97 378.434L1098.82 378.08C1098.82 378.08 1095.51 384.771 1094.27 387.656C1093.54 389.353 1093.85 391.439 1094.17 393.037C1094.34 393.907 1094.51 394.797 1094.44 395.697Z" fill="#FFB27D"/>
<path d="M1086.53 397.809C1082.42 397.333 1083.51 398.37 1077.76 398.451C1072.01 398.532 1070.03 396.635 1069.75 395.816C1069.5 395.088 1072.27 394.476 1075.23 393.758L1075.27 393.811C1075.27 393.811 1078.97 395.793 1083.71 395.318C1087.57 394.931 1091.51 393.325 1094.17 393.037C1094.34 393.907 1094.51 394.797 1094.44 395.697C1094.25 398.256 1090.63 398.282 1086.53 397.809Z" fill="#233862"/>
<path d="M1148.69 396.228C1148.51 398.788 1144.89 398.818 1140.78 398.348C1136.67 397.877 1137.77 398.911 1132.01 398.997C1126.26 399.083 1124.28 397.189 1124 396.37C1123.75 395.642 1126.52 395.027 1129.48 394.307C1129.85 394.218 1130.23 394.122 1130.6 394.029C1133.94 393.179 1136.15 390.683 1139.01 388.501C1141.71 386.435 1139.01 374.209 1139.01 374.209L1147.65 373.369C1147.65 373.369 1147.24 383.663 1147.24 388.347C1147.24 390.193 1148.1 391.97 1148.42 393.568C1148.59 394.436 1148.76 395.326 1148.69 396.228Z" fill="#FFB27D"/>
<path d="M1140.78 398.345C1136.67 397.875 1137.77 398.909 1132.01 398.995C1126.26 399.081 1124.28 397.187 1124 396.368C1123.75 395.639 1126.52 395.025 1129.48 394.304L1129.52 394.357C1129.52 394.357 1133.22 396.335 1137.96 395.857C1141.82 395.467 1145.75 393.857 1148.42 393.566C1148.59 394.436 1148.76 395.326 1148.69 396.226C1148.51 398.785 1144.89 398.818 1140.78 398.345Z" fill="#233862"/>
<path d="M1123.48 184.891C1121.99 178.789 1124.15 175.947 1126.09 174.435C1127.02 172.189 1128.07 170.571 1129.14 169.959C1131.11 168.846 1133.46 168.725 1135.11 168.821C1134.68 168.384 1133.85 168.227 1133.85 168.227C1134.87 168.075 1137.15 169.084 1137.15 169.084C1151.35 163.627 1153.58 184.476 1153.28 189.321C1152.98 194.164 1153.02 199.868 1160.41 203.684C1174.5 210.967 1155.73 238.406 1155.73 238.406C1156.08 234.491 1137.98 213.834 1128.53 207.649C1126.23 204.273 1125.41 198.306 1125.35 197.838C1125.75 202.569 1126.56 205.222 1127.28 206.716C1122.98 202.764 1122.34 193.273 1123.48 184.891Z" fill="#A9453D"/>
<path d="M1129.09 207.96C1129.04 207.98 1133.65 210.367 1137.12 209.422C1140.38 208.534 1142.51 204.319 1142.46 204.309C1141.08 204.036 1140.68 202.142 1140.71 194.009L1140.09 194.131L1129.59 196.204C1129.59 196.204 1129.83 199.499 1129.84 202.602C1129.84 205.209 1129.68 207.682 1129.09 207.96Z" fill="#FFB27D"/>
<path d="M1129.59 196.204C1129.59 196.204 1129.83 199.499 1129.84 202.602C1135.71 202.438 1138.81 197.092 1140.09 194.131L1129.59 196.204Z" fill="#ED975D"/>
<path d="M1086.88 382.579C1086.37 384.187 1087.53 385.846 1089.22 385.924L1093.32 386.117L1097.66 386.248C1098.74 386.281 1099.78 385.808 1100.47 384.969C1103.93 380.73 1114.59 366.608 1121.05 346.087C1121.24 345.511 1121.43 344.929 1121.63 344.34C1125.9 331.919 1134.76 316.33 1139.42 302.22C1140.17 299.972 1140.83 297.858 1141.43 295.855C1141.62 295.213 1141.81 294.583 1141.99 293.963C1145.42 282.048 1146.42 274.225 1147.34 265.867L1113.65 266.135C1113.65 266.135 1106.55 321.119 1086.88 382.579Z" fill="#2A4E96"/>
<path d="M1118.36 246.829C1118.45 262.818 1116.01 269.678 1116.01 269.678C1116.01 269.678 1130.43 276.989 1147.58 271.607C1147.78 271.544 1159.84 268.138 1159.84 268.138C1159.56 267.491 1157.17 256.792 1156.89 256.198C1153.27 248.445 1152.28 245.19 1151.86 242.806C1151.06 238.355 1151.04 233.753 1151.44 229.409C1152.49 217.913 1155.6 208.372 1155.6 208.372C1150.93 207.313 1146.55 205.449 1141.69 203.631C1140.57 205.019 1137.15 206.473 1134.19 206.408C1130.77 206.332 1129.66 204.875 1129.84 203.282C1126.2 205.303 1123.3 207.209 1123.3 207.209C1120.21 212.568 1113.93 217.772 1113.48 225.99C1113.37 228.013 1118.36 246.381 1118.36 246.829Z" fill="white"/>
<path d="M1147.34 248.612C1148.81 250.69 1151.63 263.326 1158.66 264.914C1155.04 255.909 1152.29 251.96 1151.86 249.191C1151.06 244.022 1151.04 238.674 1151.44 233.629C1149.09 229.517 1147.34 226.7 1147.34 226.7C1147.15 226.035 1143.6 215.081 1142.46 224.872C1141.32 234.668 1145.69 246.285 1147.34 248.612Z" fill="#5F9AA8"/>
<path d="M1127.63 199.145C1127.63 199.145 1141.53 199.372 1141.54 190.74C1141.55 182.107 1143.35 176.321 1134.47 175.81C1125.6 175.299 1123.87 178.592 1123.16 181.472C1122.46 184.352 1124.01 198.862 1127.63 199.145Z" fill="#FFB27D"/>
<path d="M1128.14 175.598C1128.14 175.598 1131.95 185.728 1137.79 187.225C1143.63 188.722 1146.16 187.162 1146.16 187.162C1146.16 187.162 1141.68 183.614 1140.75 177.419C1140.75 177.416 1131.01 170.776 1128.14 175.598Z" fill="#A9453D"/>
<path d="M1129.09 176.42C1129.09 176.42 1126.24 178.68 1125.55 180.88C1124.86 183.078 1124.55 187.604 1123.22 187.452C1123.22 187.452 1120.36 180.567 1123.58 176.672C1127 172.541 1129.09 176.42 1129.09 176.42Z" fill="#A9453D"/>
<path d="M1105.76 257.927L1099.2 277.886L1102.94 279.383L1113.79 261.751L1105.76 257.927Z" fill="#FFB27D"/>
<path d="M1123.46 206.036C1123.46 206.036 1115.72 209.098 1113.48 213.875C1111.24 218.651 1107.85 250.685 1106.5 253.975C1105.15 257.264 1104.13 259.869 1104.13 259.869C1104.13 259.869 1108.03 263.149 1111.96 263.389C1115.88 263.629 1123.46 206.036 1123.46 206.036Z" fill="#F99746"/>
<path d="M1129.84 203.282C1129.84 203.282 1121.81 223.095 1121.57 227.102C1121.33 231.113 1120.62 292.669 1120.62 292.669C1120.62 292.669 1121.1 295.499 1115.65 294.32C1110.22 293.142 1108.8 291.961 1108.8 291.961C1108.8 291.961 1114 253.99 1112.58 240.783C1111.16 227.575 1123.46 206.033 1123.46 206.033L1129.84 203.282Z" fill="#F99746"/>
<path d="M1093.32 386.117L1098.03 386.261C1098.87 386.286 1099.67 385.924 1100.21 385.277C1103.38 381.451 1114.42 367.134 1121.05 346.09C1121.24 345.513 1121.43 344.932 1121.63 344.343C1125.9 331.922 1134.76 316.332 1139.42 302.222C1140.17 299.974 1140.83 297.86 1141.43 295.858C1141.62 295.215 1141.81 294.586 1141.99 293.966L1137.02 290.211C1137.02 290.211 1122.13 314.266 1117.52 336.906C1113.51 356.569 1097.47 380.232 1093.32 386.117Z" fill="#1E3D70"/>
<path d="M1136.5 339.014C1136.42 349.43 1136.92 372.643 1138.19 383.992C1138.31 385.031 1139.19 385.815 1140.24 385.815H1143.75C1145.23 385.815 1146.34 385.805 1147.08 385.793C1147.71 385.783 1148.26 385.327 1148.38 384.703C1151.88 366.961 1154.38 352.222 1156.21 339.485C1157.74 328.824 1159.1 319.685 1160.15 311.818C1161.21 303.901 1161.94 297.271 1162.2 291.67C1162.24 290.787 1162.27 289.93 1162.29 289.095C1162.31 288.258 1162.31 287.444 1162.3 286.655L1133.2 283.826C1133.56 303.115 1136.55 332.614 1136.5 339.014Z" fill="#2A4E96"/>
<path d="M1143.75 385.813C1145.08 385.813 1146.11 385.805 1146.84 385.795C1147.61 385.785 1148.28 385.231 1148.43 384.475C1151.9 366.835 1154.39 352.169 1156.21 339.487C1157.74 328.826 1159.1 319.688 1160.15 311.821C1161.21 303.904 1161.94 297.273 1162.2 291.672L1151.52 297.938C1151.52 297.938 1158.34 300.338 1155.74 318.497C1153.14 336.655 1147.37 383.241 1143.75 385.813Z" fill="#1E3D70"/>
<path d="M1142.38 291.49C1142.38 291.49 1144.43 298.879 1151.52 297.936C1158.62 296.993 1168.7 292.747 1168.7 292.747C1168.7 292.747 1165.67 283.194 1161.9 270.641C1157.34 255.446 1151.69 235.857 1149.03 223.499C1148.28 220.037 1147.77 217.144 1147.58 215.073L1141.69 203.684C1141.69 203.684 1132.92 223.327 1132.45 228.281C1131.97 233.237 1142.38 291.49 1142.38 291.49Z" fill="#F99746"/>
<path d="M1149.46 227.545L1141.69 203.687C1141.71 203.697 1151.5 206.592 1156.43 209.073C1156.43 209.073 1159.51 213.03 1161.41 222.161C1161.41 222.161 1163.42 244.085 1158.93 252.103C1158.93 252.103 1144.74 254.933 1122.04 247.15V241.961C1122.04 241.961 1146.87 243.258 1151.96 243.847L1149.46 227.545Z" fill="#FFB27D"/>
<path d="M1142.69 238.661C1143.01 246.68 1144.9 262.246 1161.77 270.578C1161.81 270.598 1161.86 270.624 1161.9 270.641C1157.34 255.447 1151.69 235.857 1149.03 223.499C1145.93 228.119 1142.52 234.246 1142.69 238.661Z" fill="#ED7D2B"/>
<path d="M1141.69 203.687C1141.69 203.687 1156.09 204.698 1159.56 212.403C1163.03 220.108 1164.13 245.736 1159.72 253.284C1159.72 253.284 1153.64 255.011 1142.89 253.006C1142.76 252.981 1142.63 252.956 1142.49 252.93C1142.49 252.93 1139.07 244.558 1142.14 242.907C1142.14 242.907 1151.2 243.379 1150.26 240.39C1149.31 237.402 1141.69 203.687 1141.69 203.687Z" fill="#F99746"/>
<path d="M1105.59 245.167L1106.01 246.528L1129.64 239.197C1129.64 239.197 1129.95 238.838 1129.8 238.362C1129.63 237.836 1129.22 237.836 1129.22 237.836L1105.59 245.167Z" fill="#A9453D"/>
<path d="M1103.88 246.452L1105.59 245.167L1106.01 246.527L1103.88 246.452Z" fill="#A9453D"/>
<path d="M1100.13 277.34C1100.13 277.34 1094.14 280.642 1093.35 283.161C1092.56 285.679 1093.1 290.949 1094.05 290.871C1095 290.792 1096.42 285.207 1097.21 284.815C1098 284.42 1099.11 283.242 1099.11 284.107C1099.11 284.971 1098.32 286.544 1098.71 286.782C1099.11 287.017 1100.37 284.579 1101.23 284.107C1102.1 283.634 1102.47 279.745 1103.31 278.7C1104.15 277.656 1100.13 277.34 1100.13 277.34Z" fill="#FFB27D"/>
<path d="M1122.04 241.963C1122.04 241.963 1116.68 238.671 1114.43 239.177C1112.18 239.683 1106.45 243.822 1109.21 244.72C1111.97 245.617 1114.2 244.677 1115.26 245.327C1116.32 245.979 1117.1 247.168 1122.04 247.152C1126.98 247.135 1122.04 241.963 1122.04 241.963Z" fill="#FFB27D"/>
<g opacity="0.6">
<path d="M862.437 397.708H862.348C861.826 397.708 861.408 397.28 861.421 396.759L862.828 335.919L866.973 335.436L863.439 396.764C863.408 397.293 862.97 397.708 862.437 397.708Z" fill="#77A4E5"/>
<path d="M838.278 397.708H838.189C837.667 397.708 837.249 397.28 837.261 396.759L838.669 335.919L842.814 335.436L839.28 396.764C839.249 397.293 838.811 397.708 838.278 397.708Z" fill="#77A4E5"/>
<path d="M904.944 397.708H905.033C905.555 397.708 905.974 397.28 905.961 396.759L904.554 335.919L900.409 335.436L903.943 396.764C903.973 397.293 904.412 397.708 904.944 397.708Z" fill="#77A4E5"/>
<path d="M835.53 332.146V290.453C835.53 283.117 841.493 277.17 848.848 277.17H878.965C886.32 277.17 892.283 283.117 892.283 290.453V333.737L835.53 332.146Z" fill="#77A4E5"/>
<path d="M897.678 338.728H839.531C837.322 338.728 835.532 336.943 835.532 334.74V332.146H897.681V338.728H897.678Z" fill="#77A4E5"/>
<path d="M904.648 338.729H860.655C859.022 338.729 857.699 337.409 857.699 335.78V335.097C857.699 333.469 859.022 332.149 860.655 332.149H904.648C906.28 332.149 907.604 333.469 907.604 335.097V335.78C907.604 337.406 906.28 338.729 904.648 338.729Z" fill="#77A4E5"/>
</g>
<path d="M937.561 373.447C937.982 375.544 940.976 375.192 944.323 374.378C947.669 373.564 946.873 374.532 951.635 374.006C956.396 373.48 957.839 371.71 957.986 371.002C958.115 370.375 955.762 370.155 953.24 369.864C952.923 369.829 952.603 369.791 952.284 369.751C949.434 369.394 947.347 367.561 944.759 366.054C942.307 364.627 938.649 358.814 938.649 358.814L932.118 359.33C932.118 359.33 935.546 364.521 936.872 366.779C937.652 368.107 937.609 369.862 937.513 371.217C937.46 371.956 937.412 372.709 937.561 373.447Z" fill="#FFB27D"/>
<path d="M944.32 374.378C947.667 373.564 946.871 374.532 951.632 374.006C956.394 373.48 957.836 371.71 957.983 371.002C958.112 370.375 955.76 370.155 953.237 369.864L953.214 369.912C953.214 369.912 950.359 371.933 946.394 372.026C943.164 372.105 939.742 371.182 937.51 371.217C937.46 371.953 937.412 372.707 937.561 373.445C937.98 375.544 940.976 375.195 944.32 374.378Z" fill="#233862"/>
<path d="M881.437 382.821C880.139 384.523 882.383 386.531 885.209 388.493C888.036 390.455 886.781 390.503 890.326 393.717C893.87 396.931 896.157 396.838 896.783 396.481C897.341 396.165 895.949 394.259 894.499 392.177C894.316 391.917 894.134 391.651 893.954 391.388C892.336 389.022 892.336 386.248 891.756 383.314C891.205 380.538 895.754 370.33 895.754 370.33L888.447 369.412C888.447 369.412 887.494 375.577 886.672 378.06C886.191 379.521 884.16 380.485 883.077 381.309C882.492 381.759 881.893 382.222 881.437 382.821Z" fill="#FFB27D"/>
<path d="M885.209 388.493C888.036 390.455 886.781 390.503 890.326 393.717C893.87 396.931 896.157 396.838 896.783 396.481C897.341 396.165 895.949 394.258 894.499 392.177L894.446 392.192C894.446 392.192 891.038 391.393 888.346 388.49C886.15 386.126 884.581 382.955 883.077 381.312C882.489 381.762 881.891 382.224 881.434 382.824C880.139 384.52 882.383 386.531 885.209 388.493Z" fill="#233862"/>
<path d="M911.272 330.636L904.6 348.545L895.888 371.927C895.888 371.927 893.525 372.155 891.261 371.505C889.177 370.903 886.786 369.333 886.786 369.333C886.786 369.333 889.205 344.226 893.718 329.815C894.874 326.115 896.17 323.124 897.6 321.44C904.594 313.191 911.272 330.636 911.272 330.636Z" fill="#163560"/>
<path d="M904.49 302.197C900.12 300.791 886.946 301.63 874.422 304.075L872.505 300.727L845.453 298.621C845.453 298.621 836.526 318.365 841.414 330.945C842.132 332.794 843.559 333.98 845.993 334.02C845.993 334.02 846.386 334.02 846.389 334.02C846.389 334.02 862.49 334.01 867.718 334.01C881.171 334.01 896.19 324.785 898.132 324.399C901.311 323.764 902.584 330.108 905.763 336.769C908.942 343.429 935.655 366.266 935.655 366.266C935.655 366.266 939.759 366.307 941.455 365.672C943.278 364.989 943.948 364.104 943.948 364.104C943.948 364.104 914.348 305.368 904.49 302.197Z" fill="#2A4E96"/>
<path d="M863.03 219.056C859.222 218.15 854.053 219.212 853.193 219.314C842.92 220.51 840.623 236.425 841.386 240.878C842.794 249.084 838.844 251.395 834.128 257.957C824.674 271.116 831.205 281.949 838.899 284.635C843.516 286.245 849.809 281.858 849.809 281.858C849.925 281.901 866.144 266.458 874.166 258.956C887.653 253.413 872.733 221.362 863.03 219.056Z" fill="#233862"/>
<path d="M865.229 256.584C865.277 256.599 861.045 259.356 857.597 258.776C854.355 258.233 850.922 254.012 850.965 254C852.276 253.6 853.434 252.075 852.615 244.204L853.231 244.262L863.596 245.253C863.596 245.253 863.685 248.467 863.981 251.471C864.227 253.995 864.623 256.372 865.229 256.584Z" fill="#FFB27D"/>
<path d="M863.598 245.25C863.598 245.25 863.687 248.464 863.984 251.468C858.279 251.878 854.755 247.003 853.234 244.256L863.598 245.25Z" fill="#ED975D"/>
<path d="M865.784 247.906C865.784 247.906 852.352 249.471 851.502 241.114C850.653 232.754 848.348 227.327 856.89 225.974C865.431 224.621 867.424 227.643 868.388 230.364C869.348 233.085 869.255 247.284 865.784 247.906Z" fill="#FFB27D"/>
<path d="M866.783 226.07C866.783 226.07 860.295 235.333 854.788 237.348C849.279 239.364 846.675 238.097 846.675 238.097C846.675 238.097 849.302 234.488 850.169 229.522C850.425 228.058 851.444 226.839 852.849 226.348C856.799 224.975 864.415 222.869 866.783 226.07Z" fill="#233862"/>
<path d="M861.421 226.753C861.421 226.753 864.889 228.728 866.273 230.496C867.609 232.2 869.037 236.729 868.831 238.724C868.831 238.724 871.017 229.216 867.518 225.757C863.809 222.088 861.421 226.753 861.421 226.753Z" fill="#233862"/>
<path d="M875.557 278.76C875.152 305.825 875.446 300.168 872.477 302.737C871.762 303.357 869.752 303.724 867.105 303.898C858.784 304.449 844.158 303.081 843.602 301.549C841.683 296.241 843.037 294.595 841.437 286.47C841.27 285.605 841.064 284.67 840.821 283.653C839.485 278.072 838.187 276.176 842.923 267.212C847.218 259.092 851.857 252.606 852.258 252.844C863.591 259.552 864.329 253.81 864.329 253.81C864.329 253.81 875.758 265.561 875.557 278.76Z" fill="white"/>
<path d="M904.602 348.545L895.693 372.901C895.693 372.901 892.493 373.941 890.161 373.604C887.785 373.26 886.485 371.968 886.485 371.968C886.485 371.968 889.208 344.228 893.718 329.817L904.602 348.545Z" fill="#2A4E96"/>
<path d="M864.329 253.805C864.329 253.805 875.988 255.777 877.358 260.784C878.727 265.791 888.741 293.384 888.741 293.384C888.741 293.384 880.859 296.289 878.118 293.558C875.38 290.827 868.59 268.218 868.59 268.218L864.329 253.805Z" fill="white"/>
<path d="M867.107 303.898C858.786 304.449 844.16 303.081 843.605 301.549C841.686 296.241 843.039 294.595 841.44 286.47L845.342 277.607C845.342 277.607 844.789 287.75 848.501 291.05C852.207 294.35 863.695 297.422 865.5 300.181C866.367 301.504 866.94 302.831 867.107 303.898Z" fill="#DFEBFD"/>
<path d="M867.784 298.123C867.784 298.123 870.261 300.255 870.969 300.427C871.673 300.599 872.074 300.439 872.074 300.439L870.269 298.33L867.784 298.123Z" fill="#FFB27D"/>
<path d="M866.803 295.612L873.078 297.228C873.078 297.228 872.916 297.673 872.206 297.784C871.496 297.893 869.589 297.604 869.589 297.604L866.803 295.612Z" fill="#FFB27D"/>
<path d="M856.165 299.061C856.165 299.061 865.122 295.086 866.803 295.612C868.484 296.138 872.796 298.414 873.473 299.372C874.15 300.33 869.942 299.253 868.628 299.17C867.777 299.117 865.802 300.282 864.82 300.844C860.693 303.208 857.825 302.998 857.825 302.998L856.165 299.061Z" fill="#FFB27D"/>
<path d="M852.258 252.839C852.258 252.839 839.586 255.211 837.239 258.713C832.117 266.357 821.213 298.027 827.321 302.272C834.196 307.054 858.619 303.524 858.619 303.524C858.619 303.524 859.433 299.736 858.302 297.903C857.171 296.069 838.798 293.108 837.949 292.264C837.102 291.419 846.325 279.188 845.344 276.846C842.193 269.349 852.258 252.839 852.258 252.839Z" fill="white"/>
<path d="M902.353 297.71C902.353 297.71 911.222 300.1 912.132 301.473C913.045 302.846 914.829 307.044 914.753 308.139C914.677 309.234 912.256 305.972 911.349 305.137C910.76 304.596 908.633 304.28 907.589 304.111C904.952 303.683 903.682 302.48 902.693 301.883C902.031 301.481 901.225 301.557 901.225 301.557L902.353 297.71Z" fill="#FFB27D"/>
<path d="M911.359 303.878C911.359 303.878 911.896 306.89 912.309 307.428C912.72 307.969 913.105 308.091 913.105 308.091L913.042 305.491L911.359 303.878Z" fill="#FFB27D"/>
<path d="M912.132 301.473L915.737 306.346C915.737 306.346 915.354 306.574 914.774 306.235C914.193 305.896 912.979 304.563 912.979 304.563L912.132 301.473Z" fill="#FFB27D"/>
<path d="M902.695 301.88C902.695 301.88 903.517 303.87 905.16 304.584C906.8 305.297 908.007 306.369 908.271 305.984C908.534 305.6 907.028 303.572 907.028 303.572L902.695 301.88Z" fill="#FFB27D"/>
<path d="M886.388 286.86L905.038 298.621C905.038 298.621 903.078 301.235 902.424 301.473C898.971 302.738 883.437 301.526 878.118 293.561L886.388 286.86Z" fill="white"/>
<path d="M878.995 299.64C880.096 299.637 891.043 298.884 891.043 298.884C891.043 298.884 890.726 300.818 891.403 301.855L880.735 303.891L878.542 303.248L878.995 299.64Z" fill="#F9DDBF"/>
<path d="M860.736 301.395L878.995 299.64C878.995 299.64 878.354 303.008 880.737 303.888L860.607 305.358C860.607 305.358 858.984 303.082 860.736 301.395Z" fill="#F99746"/>
<path d="M891.013 299.124L878.673 300.072C878.673 300.072 878.767 299.648 878.995 299.643C879.226 299.638 891.254 298.765 891.254 298.765L891.21 299.101L891.013 299.124Z" fill="#F99746"/>
<path d="M880.737 303.891L891.603 301.83L891.505 301.549L879.921 303.762L880.737 303.891Z" fill="#F99746"/>
<path d="M754.27 397.612H754.172C753.593 397.612 753.127 397.134 753.142 396.555L754.704 328.619L759.306 328.08L755.381 396.56C755.348 397.149 754.861 397.612 754.27 397.612Z" fill="#77A4E5"/>
<path d="M727.452 397.612H727.353C726.775 397.612 726.308 397.134 726.324 396.555L727.885 328.619L732.487 328.08L728.562 396.56C728.529 397.149 728.043 397.612 727.452 397.612Z" fill="#77A4E5"/>
<path d="M801.458 397.612H801.557C802.135 397.612 802.601 397.134 802.586 396.555L801.022 328.619L796.42 328.08L800.345 396.56C800.38 397.149 800.867 397.612 801.458 397.612Z" fill="#77A4E5"/>
<path d="M724.402 324.406V277.853C724.402 269.662 731.022 263.022 739.185 263.022H772.618C780.785 263.022 787.402 269.662 787.402 277.853V326.184L724.402 324.406Z" fill="#77A4E5"/>
<path d="M793.393 331.754H728.854C726.395 331.754 724.402 329.767 724.402 327.314V324.406H793.393V331.754Z" fill="#77A4E5"/>
<path d="M801.118 331.755H752.303C750.485 331.755 749.012 330.285 749.012 328.472V327.691C749.012 325.878 750.485 324.409 752.303 324.409H801.121C802.938 324.409 804.411 325.878 804.411 327.691V328.472C804.411 330.285 802.936 331.755 801.118 331.755Z" fill="#77A4E5"/>
<path d="M774.867 245.827C774.867 245.827 772.068 248.201 771.462 254.358C771.001 259.034 774.254 295.331 776.7 298.216C783.584 306.333 792.214 302.904 795.594 304.136L798.783 301.278C798.783 301.278 787.572 293.025 786.72 290.334C783.434 279.967 785.47 249.741 774.867 245.827Z" fill="#F9DDBF"/>
<path d="M772.857 216.221C772.857 216.221 773.047 209.563 764.244 208.258C755.442 206.951 753.01 209.004 751.514 211.245C750.019 213.483 747.212 222.626 747.493 226.265C747.775 229.904 757.815 234.402 757.65 236.527C757.483 238.648 772.857 216.221 772.857 216.221Z" fill="#163560"/>
<path d="M813.683 391.867C813.397 394.117 816.474 394.777 820.052 395.091C823.629 395.404 822.521 396.11 827.402 397.192C832.282 398.277 834.3 396.982 834.678 396.322C835.015 395.735 832.766 394.716 830.368 393.571C830.066 393.427 829.765 393.28 829.463 393.133C826.768 391.811 825.318 389.259 823.264 386.87C821.319 384.604 819.649 377.521 819.649 377.521L813.024 375.83C813.024 375.83 814.674 382.209 815.23 384.928C815.557 386.526 814.928 388.278 814.378 389.608C814.084 390.334 813.784 391.075 813.683 391.867Z" fill="#FFB27D"/>
<path d="M820.052 395.093C823.629 395.407 822.521 396.112 827.402 397.194C832.282 398.279 834.3 396.984 834.678 396.325C835.015 395.738 832.766 394.719 830.368 393.573L830.327 393.614C830.327 393.614 826.831 394.678 822.884 393.432C819.666 392.418 816.594 390.329 814.378 389.611C814.081 390.334 813.782 391.075 813.683 391.869C813.399 394.117 816.474 394.779 820.052 395.093Z" fill="#233862"/>
<path d="M764.085 300.153C764.085 300.153 808.372 304.735 815.673 311.497C822.972 318.259 821.672 381.256 821.672 381.256C820.536 382.432 819.697 382.404 817.902 382.265C816.178 382.131 812.666 380.652 812.666 380.652C812.666 380.652 803.182 349.718 803.063 342.557C802.943 335.393 801.445 323.24 798.431 322.525C795.419 321.809 759.564 325.817 755.634 314.521C751.705 303.226 758.231 293.933 758.231 293.933L764.085 300.153Z" fill="#ED7D2B"/>
<path d="M743.399 311.515C745.311 312.792 748.726 314.759 754.461 314.961C764.721 315.333 777.522 314.114 780.042 311.74C780.696 311.128 781.015 310.111 781.107 308.824C781.386 304.897 779.504 298.439 778.242 293.093C777.423 289.619 776.865 286.62 777.321 285.085C778.713 280.417 783.039 270.904 783.411 267.776C783.784 264.651 780.044 247.898 774.872 245.825C769.698 243.748 749.737 245.825 749.737 245.825C741.939 247.402 741.612 263.986 744.2 278.101C744.269 278.465 744.334 278.826 744.405 279.183C747.207 293.518 738.067 307.952 743.399 311.515Z" fill="#F9DDBF"/>
<path d="M769.186 248.877C769.046 249.787 766.549 251.261 761.215 249.858C756.101 248.513 755.487 246.854 755.49 245.756C755.49 244.459 757.711 242.709 757.683 234.724L758.296 234.845L768.605 236.881C768.605 236.881 768.369 240.115 768.364 243.164C768.354 245.723 769.419 247.362 769.186 248.877Z" fill="#FFB27D"/>
<path d="M768.603 236.881C768.603 236.881 768.367 240.115 768.362 243.165C762.594 243.003 759.544 237.753 758.294 234.845L768.603 236.881Z" fill="#ED975D"/>
<path d="M770.529 239.766C770.529 239.766 756.882 239.991 756.872 231.512C756.861 223.034 755.094 217.352 763.808 216.851C772.522 216.35 774.218 219.582 774.91 222.412C775.605 225.239 774.079 239.488 770.529 239.766Z" fill="#FFB27D"/>
<path d="M770.025 216.641C770.025 216.641 766.288 226.589 760.553 228.058C754.818 229.53 752.331 227.997 752.331 227.997C752.331 227.997 756.73 224.513 757.642 218.429C757.642 218.429 767.206 211.907 770.025 216.641Z" fill="#163560"/>
<path d="M769.097 217.45C769.097 217.45 771.888 219.67 772.568 221.83C773.247 223.989 773.554 228.435 774.852 228.283C774.852 228.283 777.666 221.521 774.502 217.698C771.151 213.639 769.097 217.45 769.097 217.45Z" fill="#163560"/>
<path d="M780.422 393.717C780.389 395.985 783.52 396.289 787.11 396.19C790.7 396.089 789.676 396.918 794.648 397.434C799.617 397.95 801.478 396.433 801.782 395.732C802.054 395.11 799.703 394.357 797.193 393.495C796.876 393.388 796.562 393.275 796.245 393.163C793.418 392.159 791.694 389.79 789.387 387.651C787.202 385.625 792.026 375.822 792.026 375.822L785.703 372.701C785.703 372.701 784.504 379.701 782.96 385.823C782.562 387.406 781.261 390.01 780.863 391.396C780.648 392.147 780.432 392.918 780.422 393.717Z" fill="#FFB27D"/>
<path d="M743.67 309.83C745.582 311.107 748.726 314.759 754.458 314.964C763.92 312.817 774.692 310.318 781.102 308.826C781.381 304.899 779.499 298.441 778.237 293.095C770.763 295.371 759.643 287.618 755.906 284.554C751.976 281.335 752.1 270.61 752.1 270.61L744.195 278.105C744.263 278.47 744.329 278.831 744.4 279.188C747.207 293.518 738.338 306.267 743.67 309.83Z" fill="#F2CCAA"/>
<path d="M787.11 396.188C790.7 396.087 789.676 396.916 794.648 397.432C799.617 397.948 801.478 396.431 801.782 395.73C802.054 395.108 799.703 394.355 797.193 393.492L797.158 393.538C797.158 393.538 793.801 394.997 789.739 394.211C786.428 393.573 783.143 391.851 780.861 391.391C780.648 392.145 780.432 392.916 780.422 393.715C780.389 395.983 783.518 396.289 787.11 396.188Z" fill="#233862"/>
<path d="M754.529 302.846C765.773 302.528 799.356 305.201 805.808 310.053C813.749 316.026 791.063 380.604 791.063 380.604C791.063 380.604 788.429 380.859 787.595 380.763C783.992 380.356 782.524 379.261 782.524 379.261C782.524 379.261 782.613 341.25 785.262 333.98C787.711 327.261 789.212 324.884 786.144 324.484C783.077 324.082 744.778 328.955 741.581 317.424C739.084 308.417 742.773 300.08 742.773 300.08C742.773 300.08 744.154 303.142 754.529 302.846Z" fill="#F99746"/>
<path d="M749.732 245.825C749.732 245.825 741.921 246.487 741.312 252.644C740.851 257.32 737.454 290.484 739.9 293.366C746.784 301.484 769.741 303.203 773.12 304.435L774.051 300.596C774.051 300.596 749.545 288.281 749.917 285.482C750.295 282.685 757.224 244.717 749.732 245.825Z" fill="#F9DDBF"/>
<path d="M755.764 211.606C755.764 211.606 756.324 208.053 751.385 207.138C746.446 206.22 746.355 216.684 745.825 219.207C745.295 221.731 746.616 223.241 748.497 223.395C750.381 223.547 755.764 211.606 755.764 211.606Z" fill="#163560"/>
<path d="M774.32 300.429C774.32 300.429 781.299 298.459 782.963 298.919C784.626 299.38 790.32 303.142 789.521 304.164C788.72 305.185 783.703 303.552 781.393 303.86C779.084 304.169 777.299 305.307 775.635 305.061C773.972 304.816 772.236 304.164 772.236 304.164L774.32 300.429Z" fill="#FFB27D"/>
<path d="M774.32 300.429C774.32 300.429 777.735 298.679 778.706 297.683C778.827 297.556 779.035 297.584 779.129 297.731C779.39 298.141 779.634 298.932 778.434 299.716C776.713 300.849 774.32 300.429 774.32 300.429Z" fill="#FFB27D"/>
<path d="M798.78 301.276C798.78 301.276 806.024 301.67 807.446 302.644C808.868 303.617 813.034 309.019 811.944 309.727C810.854 310.435 806.64 307.264 804.353 306.811C802.069 306.356 800.01 306.854 798.517 306.083C797.023 305.312 795.591 304.133 795.591 304.133L798.78 301.276Z" fill="#FFB27D"/>
<path d="M749.025 398.203H719.557C718.14 396.479 718.662 390.112 718.877 388.033C718.92 387.613 718.951 387.37 718.951 387.37C718.951 387.37 729.014 379.342 730.395 385.489C730.438 385.681 730.489 385.871 730.545 386.055C732.287 391.806 740.098 394.418 744.608 395.146C747.542 395.624 748.624 397.144 749.025 398.203Z" fill="#1B3051"/>
<path d="M668.615 302.697C669.68 302.697 719.095 311.952 727.269 322.042C731.354 327.084 731.96 385.305 731.96 385.305C731.96 385.305 726.907 391.553 715.997 387.924C715.997 387.924 707.998 348.09 708.589 336.008C708.751 332.667 674.826 335.525 668.617 333.922C662.408 332.318 647.237 318.845 650.578 312.281C653.92 305.722 668.615 302.697 668.615 302.697Z" fill="#233862"/>
<path d="M704.396 299.964C704.396 299.964 707.557 302.685 710.802 303.456C712.653 303.896 714.443 304.394 715.51 304.882C718.444 306.225 724.011 312.223 723.494 312.817C721.834 314.729 715.15 309.75 713.87 310.101C712.592 310.453 715.967 313.346 714.628 314.132C713.928 314.542 712.61 312.043 711.378 311.692C709.71 311.217 708.602 308.703 708.102 308.531C707.129 308.197 703.07 304.566 703.07 304.566L704.396 299.964Z" fill="#FFB27D"/>
<path d="M762.049 398.203H732.581C731.164 396.479 731.686 390.112 731.901 388.033C731.944 387.613 731.975 387.37 731.975 387.37C731.975 387.37 742.037 379.342 743.419 385.489C743.462 385.681 743.513 385.871 743.569 386.055C745.311 391.806 753.122 394.418 757.632 395.146C760.566 395.624 761.648 397.144 762.049 398.203Z" fill="#1E3C68"/>
<path d="M683.175 302.697C684.24 302.697 733.656 311.952 741.83 322.042C745.914 327.084 746.52 385.305 746.52 385.305C746.52 385.305 741.467 391.553 730.558 387.924C730.558 387.924 722.559 348.09 723.149 336.008C723.312 332.667 689.387 335.525 683.178 333.922C676.969 332.318 661.797 318.845 665.139 312.281C668.48 305.722 683.175 302.697 683.175 302.697Z" fill="#2B478B"/>
<path d="M680.084 242.805C676.53 242.512 672.803 241.569 669.581 240.525C665.555 239.222 662.307 237.316 664.398 233.647C666.325 230.263 669.446 222.705 669.236 216.444L676.73 222.467L681.821 226.559C681.821 226.559 681.801 228.971 681.243 233.196C681.142 233.968 681.023 234.8 680.883 235.687C680.769 236.405 681.101 237.121 681.72 237.505C681.758 237.528 681.796 237.553 681.834 237.576C684.362 239.162 683.061 243.051 680.084 242.805Z" fill="#FFB27D"/>
<path d="M681.819 225.56C681.819 225.56 682.08 226.435 681.631 229.669C677.093 228.931 672.851 225.32 672.851 225.32C675.161 224.687 676.003 222.197 677.722 222.429L681.819 225.56Z" fill="#ED975D"/>
<path d="M686.017 226.298C686.017 226.298 668.561 229.191 666.924 218.32C665.286 207.452 661.929 200.503 673.003 198.197C684.078 195.891 686.874 199.714 688.307 203.209C689.736 206.706 690.515 225.267 686.017 226.298Z" fill="#FFB27D"/>
<path d="M690.872 198.399C691.623 201.016 689.615 204.205 686.248 205.254C681.248 206.812 682.354 212.929 680.105 212.845C677.856 212.762 676.948 209.331 674.94 212.072C673.226 214.411 676.368 217.182 676.15 218.467C675.78 220.669 672.321 225.173 669.203 224.948C666.087 224.723 660.256 209.95 661.422 205.381C662.588 200.811 667.253 195.992 671.67 195.327C676.086 194.662 682.217 196.563 683.634 196.563C685.049 196.563 690.467 196.985 690.872 198.399Z" fill="#2B478B"/>
<path d="M695.203 299.44C694.911 301.949 694.381 303.656 693.55 304.209C690.948 305.947 687.498 308.109 683.647 310.248C669.994 317.842 651.301 325.17 647.498 312.337C643.031 297.263 645.967 268.96 650.345 251.38C652.865 241.253 659.84 230.625 664.556 230.637C672.59 230.65 684.138 232.766 688.801 244.239C690.606 248.684 693.261 264.084 694.614 278.194C695.421 286.6 695.765 294.545 695.203 299.44Z" fill="white"/>
<path d="M663.744 230.733L665.562 226.647C665.562 226.647 681.689 228.286 684.425 237.528C684.427 237.528 671.961 230.933 663.744 230.733Z" fill="#DFEBFD"/>
<path d="M695.203 299.44C694.911 301.949 694.381 303.656 693.55 304.21C690.948 305.947 687.498 308.109 683.647 310.248C679.628 307.813 671.378 302 669.449 295.147C666.929 286.188 668.696 275.165 668.696 275.165L695.203 299.44Z" fill="#DFEBFD"/>
<path d="M667.017 244.52C667.017 244.52 668.417 283.019 670.613 290.633C674.355 303.613 708.495 308.235 708.495 308.235C708.495 308.235 710.508 305.96 709.608 302.184C709.608 302.184 689.199 286.14 688.601 283.085C688.005 280.03 693.048 259.331 687.282 251.805C681.517 244.277 670.889 237.756 667.017 244.52Z" fill="white"/>
<path d="M624.216 397.839L624.105 397.837C623.184 397.819 622.474 397.071 622.563 396.208L628.696 335.118L634.048 335.593L625.24 397.012C625.169 397.493 624.731 397.847 624.216 397.839Z" fill="#77A4E5"/>
<path d="M655.783 397.839L655.672 397.837C654.752 397.819 654.042 397.071 654.13 396.208L660.263 335.118L665.615 335.593L656.808 397.012C656.737 397.493 656.298 397.847 655.783 397.839Z" fill="#77A4E5"/>
<path d="M715.049 397.839L715.161 397.837C716.081 397.819 716.791 397.071 716.702 396.208L710.569 335.118L705.217 335.593L714.025 397.012C714.093 397.493 714.534 397.847 715.049 397.839Z" fill="#77A4E5"/>
<path d="M625.948 326.462L620.129 275.438C619.366 268.085 621.833 260.885 632.471 260.329L651.187 259.191C662.279 258.734 667.289 267.943 668.693 275.031L679.803 331.12L625.948 326.462Z" fill="#77A4E5"/>
<path d="M629.076 336.01H712.144C713.812 336.01 715.178 334.648 715.178 332.984V329.256C715.178 327.592 713.812 326.229 712.144 326.229H626.042V332.984C626.042 334.648 627.408 336.01 629.076 336.01Z" fill="#77A4E5"/>
<path d="M628.4 336.01H677.448C678.743 336.01 679.803 334.953 679.803 333.661V328.581C679.803 327.289 678.743 326.232 677.448 326.232H626.042V333.661C626.042 334.953 627.104 336.01 628.4 336.01Z" fill="#77A4E5"/>
<path d="M757.576 171.471H728.821C727.5 171.471 726.42 170.394 726.42 169.076V141.395C726.42 140.077 727.5 139 728.821 139H757.576C758.897 139 759.977 140.077 759.977 141.395V169.076C759.977 170.391 758.897 171.471 757.576 171.471Z" fill="#77A4E5"/>
<path d="M756.332 170.062H730.068C728.861 170.062 727.875 169.079 727.875 167.875V142.593C727.875 141.389 728.861 140.406 730.068 140.406H756.332C757.538 140.406 758.525 141.389 758.525 142.593V167.877C758.525 169.079 757.538 170.062 756.332 170.062Z" fill="#DFEBFD"/>
<path d="M743.199 144.062C743.582 144.062 743.893 143.752 743.893 143.37C743.893 142.987 743.582 142.677 743.199 142.677C742.815 142.677 742.504 142.987 742.504 143.37C742.504 143.752 742.815 144.062 743.199 144.062Z" fill="#77A4E5"/>
<path d="M748.115 144.351C748.302 144.017 748.723 143.896 749.06 144.083C749.395 144.27 749.517 144.69 749.329 145.026C749.141 145.36 748.721 145.481 748.383 145.294C748.049 145.107 747.927 144.684 748.115 144.351Z" fill="#77A4E5"/>
<path d="M752.919 148.156C753.241 147.949 753.672 148.042 753.88 148.364C754.088 148.685 753.994 149.115 753.672 149.322C753.35 149.529 752.919 149.436 752.711 149.115C752.503 148.793 752.597 148.366 752.919 148.156Z" fill="#77A4E5"/>
<path d="M755.3 154.051C755.683 154.051 755.994 154.362 755.994 154.744C755.994 155.125 755.683 155.437 755.3 155.437C754.917 155.437 754.605 155.125 754.605 154.744C754.605 154.362 754.914 154.051 755.3 154.051Z" fill="#77A4E5"/>
<path d="M753.591 162.074C753.975 162.074 754.286 161.764 754.286 161.381C754.286 160.999 753.975 160.688 753.591 160.688C753.207 160.688 752.896 160.999 752.896 161.381C752.896 161.764 753.207 162.074 753.591 162.074Z" fill="#77A4E5"/>
<path d="M749.72 165.256C749.991 165.526 749.991 165.966 749.72 166.237C749.448 166.507 749.007 166.507 748.736 166.237C748.465 165.966 748.465 165.526 748.736 165.256C749.007 164.985 749.448 164.985 749.72 165.256Z" fill="#77A4E5"/>
<path d="M743.199 168.199C743.582 168.199 743.893 167.889 743.893 167.506C743.893 167.123 743.582 166.813 743.199 166.813C742.815 166.813 742.504 167.123 742.504 167.506C742.504 167.889 742.815 168.199 743.199 168.199Z" fill="#77A4E5"/>
<path d="M738.265 144.351C738.077 144.017 737.656 143.896 737.319 144.083C736.985 144.27 736.863 144.69 737.051 145.026C737.238 145.36 737.659 145.481 737.996 145.294C738.328 145.107 738.45 144.684 738.265 144.351Z" fill="#77A4E5"/>
<path d="M733.458 148.156C733.136 147.949 732.705 148.042 732.497 148.364C732.289 148.685 732.381 149.115 732.705 149.322C733.027 149.529 733.458 149.436 733.666 149.115C733.874 148.793 733.78 148.366 733.458 148.156Z" fill="#77A4E5"/>
<path d="M731.077 154.051C730.695 154.051 730.383 154.362 730.383 154.744C730.383 155.125 730.695 155.437 731.077 155.437C731.46 155.437 731.772 155.125 731.772 154.744C731.775 154.362 731.463 154.051 731.077 154.051Z" fill="#77A4E5"/>
<path d="M732.786 162.074C733.17 162.074 733.481 161.764 733.481 161.381C733.481 160.999 733.17 160.688 732.786 160.688C732.402 160.688 732.091 160.999 732.091 161.381C732.091 161.764 732.402 162.074 732.786 162.074Z" fill="#77A4E5"/>
<path d="M736.658 165.255C736.386 165.526 736.386 165.966 736.658 166.236C736.929 166.507 737.37 166.507 737.641 166.236C737.913 165.966 737.913 165.526 737.641 165.255C737.37 164.985 736.929 164.985 736.658 165.255Z" fill="#77A4E5"/>
<path d="M743.014 154.744C743.014 154.362 743.325 154.051 743.708 154.051C744.091 154.051 744.403 154.362 744.403 154.744C744.403 155.125 744.091 155.437 743.708 155.437C743.323 155.437 743.014 155.128 743.014 154.744Z" fill="#77A4E5"/>
<path d="M743.802 146.083H743.612V154.744H743.802V146.083Z" fill="#77A4E5"/>
<path d="M748.046 150.898L743.443 154.501L743.796 154.949L748.398 151.345L748.046 150.898Z" fill="#77A4E5"/>
</g>
<defs>
<clipPath id="clip0_833_61475">
<rect width="680" height="260" fill="white" transform="translate(620 139)"/>
</clipPath>
</defs>
</svg>
