<svg width="753" height="502" viewBox="0 0 753 502" fill="none" xmlns="http://www.w3.org/2000/svg">
<path d="M567.994 134.759C582.381 132.405 592.135 118.833 589.781 104.447C587.426 90.0599 573.855 80.3057 559.469 82.66C545.082 85.0143 535.328 98.5855 537.682 112.972C540.036 127.359 553.608 137.113 567.994 134.759Z" fill="#0D004F"/>
<path d="M561.818 130.831C576.396 130.831 588.213 119.014 588.213 104.436C588.213 89.8585 576.396 78.041 561.818 78.041C547.241 78.041 535.423 89.8585 535.423 104.436C535.423 119.014 547.241 130.831 561.818 130.831Z" fill="white"/>
<path d="M568.193 131.077C582.915 127.557 591.998 112.769 588.478 98.0457C584.959 83.3228 570.17 74.2407 555.447 77.7602C540.724 81.2797 531.642 96.0681 535.162 110.791C538.681 125.514 553.47 134.596 568.193 131.077Z" fill="#3041B0"/>
<path d="M567.782 125.53C579.426 122.243 586.201 110.139 582.913 98.4946C579.626 86.8504 567.522 80.0759 555.878 83.3632C544.233 86.6505 537.459 98.7549 540.746 110.399C544.033 122.043 556.138 128.818 567.782 125.53Z" fill="#D4E2FF"/>
<path opacity="0.62" d="M547.531 106.575C554.83 98.9949 562.119 91.4047 569.519 83.9249C567.119 83.0213 564.529 82.5293 561.818 82.5293C549.72 82.5293 539.911 92.3384 539.911 104.437C539.911 107.388 540.493 110.2 541.557 112.77C543.555 110.702 545.543 108.643 547.531 106.575Z" fill="white"/>
<path opacity="0.62" d="M549.961 119.546C551.176 118.352 552.431 117.197 553.646 116.002C562.119 107.659 570.643 99.3659 579.228 91.123C578.093 89.6371 576.768 88.3018 575.292 87.1572C564.971 97.3277 554.76 107.599 544.519 117.85C545.553 119.175 546.738 120.39 548.043 121.444C548.646 120.761 549.359 120.139 549.961 119.546Z" fill="white"/>
<path d="M563.766 104.436C563.766 103.362 562.893 102.488 561.818 102.488C560.744 102.488 559.871 103.362 559.871 104.436C559.871 105.51 560.744 106.384 561.818 106.384C562.893 106.384 563.766 105.51 563.766 104.436Z" fill="black"/>
<path d="M571.407 109.858L561.176 104.828L561.537 86.5253C561.537 86.3847 561.648 86.2743 561.788 86.2643C561.939 86.2542 562.059 86.3747 562.059 86.5153L562.471 104.025L571.698 109.296C571.838 109.376 571.898 109.557 571.818 109.708C571.748 109.868 571.557 109.939 571.407 109.858Z" fill="black"/>
<g opacity="0.73">
<path d="M478.125 124.406L475.665 120.892C474.982 119.908 473.657 119.627 472.623 120.22C469.38 122.067 466.509 124.396 464.049 127.177C463.256 128.071 463.256 129.416 464.069 130.29L467.021 133.472C467.713 134.215 467.834 135.33 467.312 136.193C466.408 137.669 465.665 139.225 465.073 140.842C464.762 141.695 463.938 142.257 463.025 142.297L458.065 142.488C456.961 142.528 456.057 143.352 455.876 144.446C455.274 148.201 455.304 152.056 455.957 155.791C456.157 156.926 457.151 157.739 458.306 157.699L462.894 157.538C463.868 157.508 464.762 158.08 465.103 158.994C465.404 159.807 465.746 160.61 466.137 161.404C466.509 162.147 466.9 162.869 467.332 163.562C467.824 164.365 467.754 165.389 467.171 166.132L464.24 169.907C463.547 170.801 463.607 172.056 464.37 172.879C466.92 175.67 469.962 178.05 473.296 179.857C474.3 180.399 475.545 180.138 476.237 179.235L479.079 175.51C479.661 174.747 480.665 174.415 481.579 174.717C483.316 175.279 485.113 175.66 486.94 175.851C487.974 175.962 488.797 176.745 488.958 177.779L489.601 181.976C489.781 183.17 490.856 184.004 492.06 183.923C495.825 183.652 499.49 182.769 502.994 181.263C503.988 180.841 504.58 179.797 504.389 178.733L503.496 173.642C503.345 172.779 503.687 171.885 504.41 171.383C505.795 170.43 507.07 169.355 508.225 168.181C508.938 167.458 510.052 167.307 510.946 167.799L514.731 169.887C515.765 170.46 517.08 170.148 517.743 169.165C519.861 166.062 521.478 162.608 522.482 158.984C522.783 157.91 522.281 156.775 521.287 156.283L516.909 154.125C516.086 153.713 515.564 152.85 515.634 151.926C515.775 150.249 515.745 148.542 515.544 146.846C515.433 145.862 515.986 144.928 516.879 144.526L520.986 142.689C522.05 142.217 522.582 141.022 522.241 139.908C521.698 138.141 521.016 136.414 520.202 134.747C519.369 133.051 518.395 131.434 517.301 129.898C516.618 128.944 515.333 128.653 514.309 129.215L510.403 131.374C509.53 131.856 508.446 131.715 507.723 131.033C506.387 129.747 504.922 128.613 503.365 127.649C502.512 127.117 502.11 126.093 502.371 125.119L503.526 120.842C503.827 119.707 503.235 118.533 502.141 118.101C498.667 116.726 494.972 115.922 491.247 115.732C490.082 115.671 489.058 116.485 488.858 117.639L488.095 122.047C487.924 123.031 487.141 123.794 486.157 123.924C484.34 124.165 482.522 124.597 480.745 125.229C479.791 125.601 478.717 125.25 478.125 124.406ZM495.554 133.412C515.484 143.573 506.277 170.64 484.279 166.544C484.038 166.504 483.807 166.414 483.587 166.313C463.667 156.153 472.874 129.095 494.862 133.181C495.102 133.221 495.343 133.302 495.554 133.412Z" fill="#EDF5FF"/>
<path d="M425.475 156.253L423.487 153.422C422.935 152.628 421.871 152.407 421.037 152.879C418.427 154.365 416.108 156.243 414.13 158.492C413.497 159.215 413.497 160.289 414.15 160.992L416.529 163.562C417.082 164.164 417.192 165.058 416.76 165.751C416.037 166.935 415.435 168.2 414.953 169.496C414.702 170.188 414.039 170.64 413.307 170.67L409.311 170.821C408.427 170.851 407.694 171.514 407.554 172.397C407.072 175.419 407.092 178.532 407.624 181.544C407.785 182.457 408.588 183.12 409.511 183.08L413.206 182.949C413.989 182.919 414.712 183.381 414.983 184.124C415.224 184.776 415.505 185.429 415.817 186.062C416.108 186.664 416.429 187.246 416.78 187.798C417.182 188.441 417.122 189.274 416.65 189.867L414.291 192.909C413.738 193.622 413.778 194.636 414.391 195.308C416.449 197.557 418.899 199.475 421.58 200.931C422.383 201.373 423.397 201.162 423.949 200.429L426.238 197.427C426.71 196.814 427.513 196.553 428.256 196.784C429.662 197.236 431.107 197.547 432.583 197.698C433.417 197.788 434.079 198.421 434.21 199.244L434.732 202.628C434.883 203.591 435.746 204.264 436.71 204.194C439.742 203.973 442.694 203.26 445.515 202.055C446.318 201.714 446.79 200.881 446.639 200.017L445.917 195.921C445.796 195.228 446.067 194.505 446.649 194.104C447.774 193.331 448.798 192.467 449.722 191.523C450.294 190.941 451.198 190.821 451.91 191.212L454.963 192.899C455.796 193.361 456.85 193.11 457.392 192.316C459.099 189.817 460.404 187.025 461.217 184.114C461.458 183.25 461.057 182.337 460.254 181.935L456.73 180.198C456.067 179.867 455.645 179.174 455.706 178.431C455.816 177.076 455.796 175.71 455.635 174.335C455.545 173.542 455.987 172.789 456.72 172.467L460.033 170.981C460.886 170.6 461.318 169.636 461.047 168.743C460.615 167.317 460.063 165.931 459.4 164.586C458.728 163.221 457.944 161.915 457.061 160.68C456.509 159.917 455.475 159.676 454.651 160.128L451.509 161.865C450.806 162.257 449.932 162.146 449.35 161.584C448.276 160.54 447.091 159.636 445.836 158.853C445.143 158.421 444.822 157.598 445.033 156.815L445.967 153.361C446.208 152.448 445.736 151.494 444.852 151.152C442.051 150.048 439.069 149.395 436.077 149.245C435.144 149.195 434.31 149.857 434.15 150.781L433.537 154.335C433.397 155.128 432.764 155.741 431.971 155.841C430.505 156.032 429.039 156.383 427.614 156.895C426.82 157.217 425.957 156.925 425.475 156.253ZM439.531 163.502C455.595 171.684 448.165 193.501 430.445 190.198C430.254 190.158 430.063 190.098 429.893 190.007C413.849 181.815 421.258 160.008 438.979 163.311C439.16 163.351 439.35 163.421 439.531 163.502Z" fill="#EDF5FF"/>
</g>
<path d="M115.761 141.082H140.419L148.482 150.57V127.8C148.482 120.46 144.024 114.517 138.522 114.517H115.761C110.259 114.517 105.802 120.46 105.802 127.8C105.802 135.139 110.259 141.082 115.761 141.082Z" fill="#3041B0"/>
<path d="M128.853 124.266H124.667V134.025H128.853V124.266Z" fill="white"/>
<path d="M122.94 127.438H118.753V134.025H122.94V127.438Z" fill="white"/>
<path d="M135.249 121.334H131.062V134.025H135.249V121.334Z" fill="white"/>
<path d="M190.158 99.0347H163.973L155.409 109.115V84.9285C155.409 77.1374 160.148 70.8223 165.981 70.8223H190.158C196.001 70.8223 200.73 77.1374 200.73 84.9285C200.73 92.7195 195.991 99.0347 190.158 99.0347Z" fill="#D4E2FF"/>
<path d="M173.019 84.698C173.019 83.2221 171.825 82.0273 170.349 82.0273C168.873 82.0273 167.678 83.2221 167.678 84.698C167.678 86.1739 168.873 87.3686 170.349 87.3686C171.825 87.3686 173.019 86.1739 173.019 84.698Z" fill="white"/>
<path d="M181.694 84.698C181.694 83.2221 180.499 82.0273 179.023 82.0273C177.547 82.0273 176.353 83.2221 176.353 84.698C176.353 86.1739 177.547 87.3686 179.023 87.3686C180.499 87.3686 181.694 86.1739 181.694 84.698Z" fill="white"/>
<path d="M190.378 84.698C190.378 83.2221 189.184 82.0273 187.708 82.0273C186.232 82.0273 185.037 83.2221 185.037 84.698C185.037 86.1739 186.232 87.3686 187.708 87.3686C189.184 87.3686 190.378 86.1739 190.378 84.698Z" fill="white"/>
<path d="M628.865 166.473H602.681L594.117 176.553V152.377C594.117 144.586 598.856 138.271 604.689 138.271H628.865C634.709 138.271 639.438 144.586 639.438 152.377C639.438 160.158 634.699 166.473 628.865 166.473Z" fill="#D4E2FF"/>
<path d="M611.727 152.146C611.727 150.67 610.532 149.476 609.056 149.476C607.581 149.476 606.386 150.67 606.386 152.146C606.386 153.622 607.581 154.817 609.056 154.817C610.532 154.817 611.727 153.622 611.727 152.146Z" fill="white"/>
<path d="M620.402 152.146C620.402 150.67 619.207 149.476 617.731 149.476C616.255 149.476 615.06 150.67 615.06 152.146C615.06 153.622 616.255 154.817 617.731 154.817C619.207 154.817 620.402 153.622 620.402 152.146Z" fill="white"/>
<path d="M629.086 152.146C629.086 150.67 627.891 149.476 626.415 149.476C624.94 149.476 623.745 150.67 623.745 152.146C623.745 153.622 624.94 154.817 626.415 154.817C627.891 154.817 629.086 153.622 629.086 152.146Z" fill="white"/>
<path d="M423.578 141.122H442.784L449.059 148.511V130.781C449.059 125.068 445.585 120.439 441.298 120.439H423.568C419.28 120.439 415.807 125.068 415.807 130.781C415.827 136.493 419.301 141.122 423.578 141.122Z" fill="#3041B0"/>
<path d="M426.76 131.112C426.76 130.007 425.867 129.104 424.752 129.104C423.648 129.104 422.744 129.997 422.744 131.112C422.744 132.216 423.638 133.12 424.752 133.12C425.867 133.109 426.76 132.216 426.76 131.112Z" fill="white"/>
<path d="M433.778 131.112C433.778 130.007 432.885 129.104 431.77 129.104C430.666 129.104 429.762 129.997 429.762 131.112C429.762 132.216 430.656 133.12 431.77 133.12C432.885 133.109 433.778 132.216 433.778 131.112Z" fill="white"/>
<path d="M440.796 131.112C440.796 130.007 439.903 129.104 438.788 129.104C437.684 129.104 436.78 129.997 436.78 131.112C436.78 132.216 437.674 133.12 438.788 133.12C439.903 133.109 440.796 132.216 440.796 131.112Z" fill="white"/>
<path d="M568.786 183.049C568.786 177.065 563.937 172.216 557.953 172.216C551.969 172.216 547.12 177.065 547.12 183.049C547.12 189.033 557.431 198.43 557.431 198.43C557.431 198.43 568.786 189.033 568.786 183.049Z" fill="#EE3A58"/>
<path d="M557.431 198.43C557.431 198.43 568.786 189.033 568.786 183.049C568.786 177.065 563.937 172.216 557.953 172.216" fill="#3041B0"/>
<path d="M554.81 193.531C554.81 193.531 556.206 182.176 554.64 182.868C553.063 183.571 552.19 185.318 553.937 185.659C555.684 186.011 562.672 185.659 562.672 185.659C562.672 185.659 563.294 183.672 562.15 183.21C560.403 182.507 560.403 189.153 560.051 193.872" stroke="white" stroke-width="0.2873" stroke-miterlimit="10"/>
<path d="M561.798 195.98H553.063C552.391 195.98 551.838 195.428 551.838 194.755C551.838 194.082 552.391 193.53 553.063 193.53H561.798C562.471 193.53 563.023 194.082 563.023 194.755C563.023 195.428 562.471 195.98 561.798 195.98Z" fill="#18293D"/>
<path d="M557.601 201.573C554.8 201.573 552.531 199.304 552.531 196.502V195.629H562.662V196.502C562.672 199.304 560.403 201.573 557.601 201.573Z" fill="#18293D" stroke="#EAEBEC" stroke-width="0.3925" stroke-miterlimit="10"/>
<path d="M538.415 183.119H543.345" stroke="#ABC6FF" stroke-width="0.7375" stroke-miterlimit="10" stroke-linecap="round"/>
<path d="M572.892 183.119H577.812" stroke="#ABC6FF" stroke-width="0.7375" stroke-miterlimit="10" stroke-linecap="round"/>
<path d="M544.188 169.184L547.672 172.667" stroke="#ABC6FF" stroke-width="0.7375" stroke-miterlimit="10" stroke-linecap="round"/>
<path d="M568.565 193.561L572.049 197.044" stroke="#ABC6FF" stroke-width="0.7375" stroke-miterlimit="10" stroke-linecap="round"/>
<path d="M558.114 163.421V168.34" stroke="#ABC6FF" stroke-width="0.7375" stroke-miterlimit="10" stroke-linecap="round"/>
<path d="M572.049 169.184L568.565 172.667" stroke="#ABC6FF" stroke-width="0.7375" stroke-miterlimit="10" stroke-linecap="round"/>
<path d="M547.672 193.561L544.188 197.044" stroke="#ABC6FF" stroke-width="0.7375" stroke-miterlimit="10" stroke-linecap="round"/>
<g opacity="0.56">
<path d="M97.9802 222.437H72.1072V237.456H97.9802V222.437Z" fill="#ABC6FF"/>
<path d="M123.853 237.467H97.9802V252.487H123.853V237.467Z" fill="#ABC6FF"/>
<path d="M675.913 265.508H650.04V280.528H675.913V265.508Z" fill="#ABC6FF"/>
<path d="M701.786 280.527H675.913V295.547H701.786V280.527Z" fill="#ABC6FF"/>
<path d="M250.225 364.667H276.098V349.647H250.225V364.667Z" fill="#ABC6FF"/>
<path d="M224.348 379.696H250.221V364.676H224.348V379.696Z" fill="#ABC6FF"/>
</g>
<path d="M107.167 419.883C107.167 420.717 101.193 421.399 93.8339 421.399C86.4645 421.399 80.5007 420.717 80.5007 419.883C80.5007 419.05 86.4745 418.367 93.8339 418.367C101.193 418.367 107.167 419.05 107.167 419.883Z" fill="#ABC6FF"/>
<path d="M105.671 381.852C108.864 370.336 109.787 358.288 108.372 346.431C108.301 345.849 107.378 345.849 107.448 346.431C108.854 358.218 107.95 370.175 104.777 381.611C104.627 382.173 105.52 382.414 105.671 381.852Z" fill="#ABC6FF"/>
<path d="M118.944 379.723C124.968 381.098 131.735 377.685 134.185 372.012C131.414 372.886 128.452 373.157 125.57 372.785C134.426 370.165 139.907 361.279 142.899 352.545C145.7 344.382 147.076 335.748 146.955 327.123C144.556 329.322 142.166 331.521 139.767 333.72C142.066 331.33 144.415 328.88 145.771 325.858C147.126 322.836 147.337 319.071 145.429 316.36C138.15 320.657 131.313 325.718 125.068 331.42C124.466 331.973 123.853 332.555 123.602 333.328C123.321 334.201 123.572 335.145 123.823 336.029C124.787 339.452 125.741 342.866 126.705 346.29C125.199 343.258 123.351 340.396 121.213 337.766C112.709 350.356 109.075 366.149 111.223 381.199" fill="#ABC6FF"/>
<path d="M104.797 379.021C104.968 372.917 103.703 366.782 101.143 361.24C99.1751 356.983 95.4502 352.586 90.7917 353.158C88.0909 353.489 85.9022 355.437 83.9846 357.375C77.8802 363.519 72.5289 370.417 68.1013 377.866C66.0029 381.39 64.0752 385.185 63.8142 389.282C70.8322 383.418 72.2177 372.174 80.1392 367.605C80.8922 367.174 81.9163 366.842 82.5589 367.435C84.2958 369.051 79.1453 371.822 80.7918 373.539C82.8701 371.39 84.9384 369.242 87.0166 367.093C87.4885 366.611 87.9905 366.099 88.6431 365.939C89.7475 365.668 90.8118 366.441 91.6551 367.194C95.8719 370.959 99.4462 375.417 102.217 380.336" fill="#ABC6FF"/>
<path d="M108.854 353.85C108.663 345.075 106.334 336.35 102.147 328.64C102.89 333.158 102.579 337.836 101.263 342.214C101.444 336.371 101.484 330.025 98.0003 325.327C96.5245 323.339 94.5165 321.802 92.5085 320.357C85.8118 315.527 78.7035 311.27 71.2939 307.626C72.82 313.459 74.3461 319.282 75.8822 325.116C75.9927 325.557 76.1332 326.019 76.4746 326.31C76.8762 326.642 77.4485 326.662 77.9605 326.652C80.4906 326.632 83.0207 326.612 85.5608 326.592C83.8741 327.997 81.8661 329.021 79.7376 329.563C79.1553 329.714 78.4625 329.905 78.2617 330.477C78.1211 330.889 78.3019 331.34 78.4926 331.742C84.0749 343.519 95.3297 352.455 108.081 355.196" fill="#ABC6FF"/>
<path d="M132.448 327.807C131.896 331.632 131.745 335.497 132.026 339.353C132.066 339.935 132.99 339.945 132.95 339.353C132.679 335.588 132.799 331.792 133.341 328.048C133.422 327.465 132.528 327.214 132.448 327.807Z" fill="white"/>
<path d="M128.602 330.668C128.994 334.102 129.385 337.545 129.777 340.979C129.847 341.561 130.761 341.571 130.701 340.979C130.309 337.545 129.917 334.102 129.526 330.668C129.456 330.086 128.542 330.076 128.602 330.668Z" fill="white"/>
<path d="M114.406 375.878C120.108 361.3 127.92 347.586 137.548 335.236C137.909 334.775 137.257 334.122 136.895 334.584C127.167 347.063 119.285 360.899 113.522 375.627C113.311 376.19 114.195 376.431 114.406 375.878Z" fill="white"/>
<path d="M96.4341 336.1C96.0726 332.295 95.7112 328.49 95.3497 324.685C95.2895 324.102 94.3759 324.092 94.4261 324.685C94.7875 328.49 95.1489 332.295 95.5104 336.1C95.5706 336.682 96.4843 336.682 96.4341 336.1Z" fill="white"/>
<path d="M90.6812 322.084C92.0968 325.708 93.0406 329.493 93.4522 333.359C93.5125 333.941 94.4362 333.951 94.3759 333.359C93.9442 329.413 93.0105 325.538 91.5647 321.833C91.3539 321.301 90.4704 321.532 90.6812 322.084Z" fill="white"/>
<path d="M107.137 351.691C103.051 342.846 96.133 335.457 87.5789 330.778C87.0568 330.497 86.595 331.29 87.1171 331.571C95.5406 336.18 102.318 343.439 106.344 352.153C106.585 352.695 107.378 352.224 107.137 351.691Z" fill="white"/>
<path d="M91.3641 358.589C89.3761 360.577 87.3782 362.575 85.3903 364.563C84.9686 364.985 85.6212 365.628 86.0429 365.216C88.0308 363.228 90.0287 361.23 92.0167 359.242C92.4283 358.82 91.7757 358.168 91.3641 358.589Z" fill="white"/>
<path d="M88.2817 358.098C82.9906 361.602 78.1413 365.748 73.8843 370.457C73.4927 370.899 74.1353 371.551 74.5369 371.109C78.7437 366.461 83.5127 362.345 88.7435 358.891C89.2355 358.569 88.7736 357.776 88.2817 358.098Z" fill="white"/>
<path d="M87.589 359.844C89.3159 358.73 91.5448 359.131 93.1311 360.316C94.7475 361.521 95.7616 363.348 96.615 365.135C98.5828 369.252 100.029 373.609 101.002 378.067C101.133 378.649 102.016 378.398 101.886 377.826C100.802 372.856 99.1752 367.836 96.7354 363.348C95.7415 361.521 94.3961 359.744 92.4684 358.86C90.7516 358.077 88.7436 358.007 87.1272 359.051C86.6352 359.372 87.087 360.165 87.589 359.844Z" fill="white"/>
<path d="M96.4443 422.082H119.054C125.902 422.082 131.444 416.54 131.444 409.693V376.45H84.0549V409.693C84.0549 416.53 89.607 422.082 96.4443 422.082Z" fill="#3041B0"/>
<path opacity="0.28" d="M96.4443 422.082H119.054C125.902 422.082 131.444 416.54 131.444 409.693V376.45" fill="#3041B0"/>
<g opacity="0.59">
<path d="M132.448 390.707C126.042 391.32 119.998 393.297 114.155 395.928C108.452 398.488 102.94 401.5 97.0166 403.548C93.3018 404.833 89.4565 405.717 85.5409 406.088C84.9585 406.149 84.9485 407.062 85.5409 407.012C91.9464 406.4 97.9905 404.422 103.834 401.791C109.536 399.231 115.048 396.219 120.972 394.171C124.687 392.886 128.532 392.002 132.448 391.631C133.03 391.571 133.04 390.657 132.448 390.707Z" fill="white"/>
</g>
<path d="M317.003 245.448C316.531 269.966 316.772 294.484 317.736 318.991C317.977 325.136 318.268 331.28 318.599 337.425C318.89 342.866 318.921 348.449 319.844 353.83C320.607 358.208 322.415 362.625 326.37 365.005C329.573 366.932 333.95 367.444 336.962 364.874C340.617 361.772 340.316 356.43 341.34 352.163C342.615 346.852 347.103 342.866 352.645 342.676C353.468 342.645 353.478 341.36 352.645 341.39C348.569 341.531 344.733 343.569 342.304 346.862C339.754 350.326 339.784 354.593 338.87 358.619C338.398 360.697 337.605 362.786 335.848 364.111C334.171 365.386 331.973 365.597 329.965 365.115C325.105 363.95 322.475 359.683 321.4 355.085C320.176 349.854 320.256 344.252 319.955 338.921C319.633 333.027 319.342 327.134 319.101 321.24C318.609 309.363 318.298 297.486 318.148 285.598C317.977 272.215 318.027 258.832 318.288 245.458C318.308 244.625 317.023 244.625 317.003 245.448Z" fill="#D4E2FF"/>
<path d="M356.069 338.248H344.081V350.236H356.069V338.248Z" fill="white"/>
<path d="M356.069 321.983H344.081V333.971H356.069V321.983Z" fill="#D4E2FF"/>
<path d="M356.069 355.366H344.081V367.354H356.069V355.366Z" fill="#D4E2FF"/>
<path d="M181.102 246.442V119.888C181.102 112.759 186.875 106.986 194.003 106.986H376.54C383.669 106.986 389.442 112.759 389.442 119.888V246.442C389.442 253.57 383.669 259.343 376.54 259.343H194.003C186.875 259.343 181.102 253.57 181.102 246.442Z" stroke="white" stroke-width="2" stroke-miterlimit="10"/>
<path d="M369.151 254.745H199.244C192.196 254.745 186.493 249.033 186.493 241.995V124.336C186.493 117.288 192.206 111.585 199.244 111.585H369.151C376.199 111.585 381.902 117.298 381.902 124.336V241.984C381.902 249.033 376.199 254.745 369.151 254.745Z" fill="#D4E2FF"/>
<path opacity="0.48" d="M246.211 111.062H304.744C315.989 122.659 362.314 234.956 377.394 249.655C375.185 252.757 371.781 254.745 367.966 254.745H320.858C307.194 243.54 248.299 113.362 246.211 111.062Z" fill="white" stroke="#FBF9F5" stroke-width="0.2776" stroke-miterlimit="10"/>
<path opacity="0.48" d="M263.128 254.304C261.371 252.336 259.604 250.358 257.857 248.38C243.771 232.497 191.603 111.585 195.148 111.585H221.101C221.101 111.705 289.744 255.006 289.373 254.745H263.42C263.339 254.595 263.249 254.444 263.128 254.304Z" fill="white" stroke="#FBF9F5" stroke-width="0.2776" stroke-miterlimit="10"/>
<path d="M186.493 241.251C186.493 248.701 191.895 254.745 198.551 254.745H371.079C377.735 254.745 383.137 248.701 383.137 241.251H186.493Z" fill="#18004C"/>
<path d="M203.461 122.428C203.461 120.711 202.065 119.325 200.358 119.325C198.651 119.325 197.256 120.721 197.256 122.428C197.256 124.144 198.651 125.53 200.358 125.53C202.065 125.53 203.461 124.144 203.461 122.428Z" fill="#3041B0"/>
<path d="M214.334 122.428C214.334 120.711 212.938 119.325 211.232 119.325C209.525 119.325 208.129 120.721 208.129 122.428C208.129 124.144 209.525 125.53 211.232 125.53C212.938 125.53 214.334 124.144 214.334 122.428Z" fill="white"/>
<path d="M225.207 122.428C225.207 120.711 223.812 119.325 222.105 119.325C220.388 119.325 219.002 120.721 219.002 122.428C219.002 124.144 220.398 125.53 222.105 125.53C223.812 125.53 225.207 124.144 225.207 122.428Z" fill="#EE3A58"/>
<path d="M267.965 186.419C273.802 171.603 266.522 154.86 251.705 149.023C236.888 143.187 220.146 150.467 214.309 165.283C208.473 180.1 215.753 196.843 230.569 202.679C245.386 208.516 262.129 201.236 267.965 186.419Z" fill="white"/>
<path d="M252.235 202.457C237.536 208.591 220.649 201.643 214.515 186.945C208.38 172.246 215.328 155.359 230.027 149.225L252.235 202.457Z" fill="#3041B0"/>
<path d="M252.406 202.527C267.104 196.392 274.052 179.505 267.917 164.807L241.191 175.961L252.406 202.527Z" fill="#18004C"/>
<path d="M241.332 176.303L273.65 162.819C269.946 153.934 262.988 147.388 254.735 143.994L241.332 176.303Z" fill="#EE3A58"/>
<g opacity="0.54">
<path d="M296.421 202.206H305.196V218.882H296.421" fill="#3041B0"/>
</g>
<path d="M319.282 186.504H310.517V218.883H319.282V186.504Z" fill="#3041B0"/>
<g opacity="0.54">
<path d="M332.224 183.23H323.88V218.883H332.224V183.23Z" fill="#3041B0"/>
</g>
<path d="M346.601 169.245H338.258V218.883H346.601V169.245Z" fill="#3041B0"/>
<path d="M293.248 195.308L309.212 179.495H324.302L338.679 158.221" stroke="#EE3A58" stroke-width="0.2452" stroke-miterlimit="10"/>
<path d="M339.091 159.908V158.061H337.244L339.091 159.908Z" fill="#EE3A58" stroke="#EE3A58" stroke-width="0.8659" stroke-miterlimit="10"/>
<path d="M294.112 194.877C294.112 194.476 293.79 194.154 293.389 194.154C292.987 194.154 292.666 194.476 292.666 194.877C292.666 195.279 292.987 195.6 293.389 195.6C293.79 195.6 294.112 195.279 294.112 194.877Z" fill="#EE3A58" stroke="#EE3A58" stroke-width="0.8659" stroke-miterlimit="10"/>
<path d="M290.266 218.913H359.653" stroke="#18293D" stroke-width="0.8659" stroke-miterlimit="10"/>
<g opacity="0.5">
<path d="M298.228 129.808H291.813V136.223H298.228V129.808Z" fill="#3041B0"/>
<path d="M298.228 142.639H291.813V149.054H298.228V142.639Z" fill="#3041B0"/>
</g>
<path d="M303.359 133.653H347.635" stroke="white" stroke-width="1.2817" stroke-miterlimit="10"/>
<path d="M303.359 147.137H347.635" stroke="white" stroke-width="1.2817" stroke-miterlimit="10"/>
<path d="M114.255 443.015C127.164 443.015 137.628 441.73 137.628 440.144C137.628 438.558 127.164 437.272 114.255 437.272C101.347 437.272 90.8821 438.558 90.8821 440.144C90.8821 441.73 101.347 443.015 114.255 443.015Z" fill="#ABC6FF"/>
<path d="M178.029 443.015C190.938 443.015 201.403 441.73 201.403 440.144C201.403 438.558 190.938 437.272 178.029 437.272C165.121 437.272 154.656 438.558 154.656 440.144C154.656 441.73 165.121 443.015 178.029 443.015Z" fill="#ABC6FF"/>
<path d="M235.318 199.465C235.318 199.465 212.025 235.096 205.7 230.629C205.7 230.629 195.519 225.438 199.164 204.525C199.174 202.497 199.184 201.081 199.113 200.77C199.113 200.77 197.075 182.206 193.682 177.939C193.31 177.467 192.658 174.505 192.808 174.475C203.17 171.885 207.326 193.963 210.188 206.021C210.308 206.523 229.906 191.232 229.906 191.232C229.906 191.232 240.267 177.527 240.99 178.31C242.034 179.445 238.018 185.559 238.018 185.559C238.018 185.559 238.279 186.262 239.063 186.603C239.846 186.955 240.287 187.477 240.549 188.521C240.81 189.565 241.854 190.178 242.034 190.79C242.205 191.392 237.526 197.868 235.318 199.465Z" fill="#FEB28C"/>
<path d="M221.432 195.881C215.619 200.368 210.258 206.342 210.178 206.011C207.316 193.953 203.17 171.875 192.798 174.465C192.648 174.505 193.3 177.467 193.672 177.929C197.065 182.206 199.103 200.76 199.103 200.76C199.174 201.081 199.164 202.487 199.154 204.515C195.509 225.428 205.69 230.619 205.69 230.619C210.529 234.032 225.097 216.161 231.774 206.543C229.264 203.591 223.932 198.872 221.432 195.881Z" fill="#3041B0"/>
<path d="M230.248 191.132C230.248 191.132 232.346 185.198 233.219 185.369C234.093 185.54 237.938 187.206 237.848 188.682C237.757 190.168 234.444 188.943 234.444 188.943C234.444 188.943 235.057 192.256 233.4 192.698C231.723 193.14 230.248 191.132 230.248 191.132Z" fill="#FEB28C"/>
<path d="M235.398 188.692C235.398 188.692 235.307 190.178 236.532 190.439C236.532 190.439 236.793 192.016 238.37 191.664C238.37 191.664 237.938 192.367 238.892 192.538C238.882 192.528 234.785 196.985 235.398 188.692Z" fill="#F79988"/>
<path d="M234.615 185.79C235.448 186.061 236.261 186.402 237.075 186.754C237.486 186.935 237.868 187.075 238.289 187.376C238.49 187.527 238.711 187.718 238.812 188.049C238.922 188.38 238.771 188.792 238.551 188.983C237.687 189.676 236.703 189.696 235.82 189.655C235.599 189.635 235.348 189.615 235.338 189.635C235.308 189.545 235.338 189.856 235.358 190.057C235.388 190.499 235.438 190.931 235.438 191.372L235.398 191.382L235.147 190.097C235.137 189.896 234.976 189.655 235.157 189.445C235.358 189.294 235.599 189.364 235.81 189.354C236.663 189.354 237.607 189.284 238.259 188.712C238.41 188.571 238.49 188.35 238.43 188.149C238.37 187.949 238.219 187.788 238.049 187.657C237.707 187.396 237.285 187.236 236.914 187.025L234.585 185.82L234.615 185.79Z" fill="#EC7965"/>
<path d="M238.119 185.379C238.109 185.59 238.049 185.74 237.968 185.891C237.898 186.041 237.778 186.152 237.687 186.282C237.557 186.373 237.446 186.493 237.296 186.574C237.145 186.654 236.984 186.724 236.774 186.744L236.743 186.714C237.175 186.242 237.627 185.79 238.089 185.349L238.119 185.379Z" fill="#EC7965"/>
<path d="M239.886 187.587C239.695 188.029 239.414 188.411 239.113 188.772C238.812 189.134 238.45 189.435 238.099 189.746C237.707 190.007 237.346 190.278 236.884 190.489C236.643 190.579 236.382 190.66 236.101 190.62C235.84 190.569 235.569 190.419 235.488 190.168L235.518 190.148C235.81 190.519 236.372 190.449 236.743 190.218C237.135 189.987 237.506 189.716 237.868 189.435C238.591 188.883 239.263 188.25 239.866 187.567L239.886 187.587Z" fill="#EC7965"/>
<path d="M236.472 190.429C236.693 190.911 236.934 191.433 237.296 191.554C237.627 191.694 238.049 191.524 238.42 191.222C238.822 190.961 239.173 190.57 239.565 190.228C239.956 189.877 240.348 189.526 240.789 189.194L240.82 189.214C240.488 189.626 240.147 190.038 239.795 190.429C239.434 190.821 239.083 191.212 238.651 191.534C238.239 191.835 237.647 192.106 237.145 191.815C236.653 191.524 236.532 190.931 236.442 190.429H236.472Z" fill="#EC7965"/>
<path d="M238.299 191.393C238.41 191.704 238.571 191.975 238.721 192.236C238.801 192.356 238.902 192.467 238.972 192.517C238.982 192.537 239.103 192.557 239.233 192.557C239.484 192.527 239.725 192.537 240.066 192.437C240.438 192.407 240.619 192.417 240.97 192.246L241 192.276C240.809 192.547 240.478 192.688 240.167 192.758C239.866 192.858 239.544 192.969 239.203 192.929C239.042 192.909 238.862 192.889 238.741 192.758C238.621 192.638 238.55 192.487 238.48 192.336C238.36 192.035 238.259 191.714 238.259 191.393H238.299Z" fill="#EC7965"/>
<path d="M187.708 170.008L193.441 141.364C193.722 139.135 189.686 133.793 187.728 132.669C182.367 129.597 175.76 129.155 169.716 130.42C150.018 134.516 157.989 169.335 178.361 163.662" fill="#18004C"/>
<path d="M172.577 149.857C172.587 150.158 172.347 150.399 172.055 150.399C170.81 150.389 167.949 150.128 167.537 153.381C167.126 156.664 170.258 158.512 172.146 158.622C172.688 158.652 173.943 158.763 174.314 159.164C175.449 160.399 175.981 163.09 176.854 166.443C178.782 173.863 172.959 177.246 172.959 177.246C172.959 177.246 192.386 186.794 192.206 177.226C192.206 177.226 190.67 159.616 190.76 159.526C192.276 158.01 198.169 157.357 194.465 144.807C191.031 133.181 182.507 134.004 180.338 134.395C178.491 134.707 172.146 135.108 172.577 149.857Z" fill="#FEB28C"/>
<path d="M187.929 133.332C187.929 133.332 181.142 152.247 171.905 152.478C171.905 152.478 165.81 131.163 187.929 133.332Z" fill="#18004C"/>
<path d="M168.953 154.325C168.953 154.325 170.901 150.209 173.381 155.731L168.953 154.325Z" fill="#EC7965"/>
<path d="M183.381 149.877C184.987 149.837 186.332 151.122 186.362 152.728C186.403 154.335 185.118 155.68 183.511 155.71C181.905 155.75 180.559 154.465 180.529 152.859C180.489 151.242 181.764 149.907 183.381 149.877Z" fill="#F79988"/>
<path d="M195.539 150.961C194.204 150.72 193.18 149.566 193.149 148.16C193.129 147.076 193.702 146.112 194.565 145.59C194.565 145.59 195.81 148.813 195.539 150.961Z" fill="#F79988"/>
<path d="M193.079 149.455L188.632 151.674C188.632 151.674 190.81 153.26 191.985 152.387C193.16 151.523 193.079 149.455 193.079 149.455Z" fill="white"/>
<path d="M189.676 146.232L190.379 149.405L191.925 148.722C192.206 148.592 192.256 148.21 192.005 148.02L189.676 146.232Z" fill="#EC7965"/>
<path d="M183.973 145.038C183.591 145.58 183.812 143.692 184.445 143.26C185.077 142.829 185.901 142.919 186.272 143.471C186.262 143.471 184.897 143.742 183.973 145.038Z" fill="#1E274D"/>
<path d="M192.356 141.865C192.999 142.046 191.643 140.721 190.88 140.771C190.117 140.831 189.535 141.413 189.585 142.076C189.585 142.076 190.82 141.434 192.356 141.865Z" fill="#1E274D"/>
<path d="M186.533 147.377C186.744 147.909 187.136 148.261 187.387 148.15C187.648 148.05 187.678 147.528 187.467 146.996C187.256 146.463 186.865 146.112 186.614 146.222C186.353 146.323 186.322 146.845 186.533 147.377Z" fill="#1E274D"/>
<path d="M190.66 145.409C190.86 145.921 191.232 146.253 191.473 146.152C191.724 146.052 191.754 145.56 191.543 145.048C191.342 144.536 190.971 144.205 190.73 144.305C190.479 144.415 190.449 144.907 190.66 145.409Z" fill="#1E274D"/>
<path d="M190.75 159.526C190.75 159.526 185.208 160.591 182.407 160.41C179.605 160.219 191.382 166.504 190.75 159.526Z" fill="#EC7965"/>
<path d="M176.182 158.672C176.182 160.058 175.057 161.182 173.672 161.182C172.286 161.182 171.162 160.058 171.162 158.672C171.162 157.287 172.286 156.162 173.672 156.162C175.057 156.172 176.182 157.287 176.182 158.672Z" fill="#EE3A58"/>
<path d="M176.182 163.682C176.182 165.067 175.057 166.192 173.672 166.192C172.286 166.192 171.162 165.067 171.162 163.682C171.162 162.296 172.286 161.172 173.672 161.172C175.057 161.182 176.182 162.306 176.182 163.682Z" fill="#EE3A58"/>
<path d="M179.365 413.899L178.22 430.887C178.22 430.887 181.664 440.997 184.857 437.082C188.049 433.166 191.212 431.098 191.212 431.098L192.256 415.255L179.365 413.899Z" fill="#F5826B"/>
<path d="M184.435 416.219L184.987 436.942C184.987 436.942 174.877 438.458 178.632 431.691L178.692 412.564L184.435 416.219Z" fill="#FEB28C"/>
<path d="M141.152 416.028L136.414 431.229C136.414 431.229 132.809 434.391 131.504 434.311C129.135 434.161 127.89 430.074 127.89 430.074L127.498 416.028H141.152Z" fill="#F5826B"/>
<path d="M134.325 411.962L131.012 437.112C131.012 437.112 124.215 438.909 127.97 432.142L127.137 412.795L134.325 411.962Z" fill="#FEB28C"/>
<path d="M192.266 431.018L205.027 441.359C205.68 441.841 205.218 442.664 204.284 442.664L185.449 442.815C184.997 442.815 184.585 442.614 184.435 442.303L183.019 439.391C182.608 438.548 181.794 438.477 181.865 439.371L181.172 442.182C181.212 442.624 176.704 442.503 176.664 442.102C176.413 439.602 176.935 431.419 177.387 429.15C177.447 428.829 177.788 428.558 178.23 428.498C178.632 428.437 179.043 428.548 179.284 428.789C180.559 430.024 184.626 433.718 186.784 432.975C188.24 432.473 190.118 431.57 190.7 431.058C191.101 430.706 191.834 430.696 192.266 431.018Z" fill="#EE3A58"/>
<path d="M127.709 429.542L120.46 441.681C119.687 442.866 120.119 444.271 121.514 445.104C123.783 446.45 125.631 449.141 127.056 449.181C129.637 449.251 133.632 446.54 135.972 445.526C137.538 444.843 138.763 443.839 138.572 442.534L136.775 430.356C136.755 430.205 136.484 430.145 136.353 430.265L133.582 432.785C132.669 433.609 130.209 433.498 129.596 432.514C129.155 431.811 128.131 429.542 128.131 429.542C128.04 429.412 127.789 429.422 127.709 429.542Z" fill="#EE3A58"/>
<path d="M167.508 225.93C162.949 234.896 157.929 243.922 154.315 256.643C150.279 270.88 127.669 393.498 125.932 419.572C130.45 420.656 140.108 420.737 142.96 420.576C152.036 394.552 176.122 307.586 180.017 291.19C180.62 288.67 184.505 289.223 184.204 291.793C181.995 310.517 177.015 388.187 175.339 418.568C177.708 419.773 193.3 419.241 196.041 418.899C199.013 386.791 221.713 265.327 197.879 225.92C186.995 224.424 184.365 225.428 167.508 225.93Z" fill="#18004C"/>
<path d="M196.312 227.275C196.312 227.275 206.874 253.992 206.874 287.907C206.874 321.822 192.376 418.909 192.376 418.909" stroke="white" stroke-width="0.4233" stroke-miterlimit="10"/>
<path d="M129.616 419.24L169.174 226.593" stroke="white" stroke-width="0.4233" stroke-miterlimit="10"/>
<path opacity="0.21" d="M198.812 227.537L152.096 264.765C152.096 264.765 157.216 241.392 167.678 226.262L198.812 227.537Z" fill="#1E274D"/>
<path d="M192.045 173.472C192.878 174.446 204.776 194.455 204.394 202.005C204.013 209.606 198.31 226.122 198.722 227.266C198.722 227.266 199.053 229.103 167.005 227.156C165.881 214.385 162.086 186.945 165.449 177.518C165.449 177.518 170.79 175.741 177.025 171.504C177.025 171.504 192.828 181.082 192.045 173.472Z" fill="#3041B0"/>
<path d="M167.678 177.839C165.027 180.309 163.23 182.638 163.23 182.638C159.867 192.056 165.891 214.384 167.015 227.155C181.513 228.039 189.374 228.139 193.641 227.999C184.605 211.473 175.921 194.766 167.678 177.839Z" fill="#3041B0"/>
<path d="M214.856 233.782L183.471 272.637L158.311 252.306L177.437 232.116L177.347 230.931C177.246 229.656 177.638 228.381 178.441 227.387L185.419 218.742C187.778 215.821 192.055 215.369 194.977 217.728L214.856 233.782Z" fill="white"/>
<path d="M214.183 230.78L182.798 269.635L157.628 249.304L176.754 229.114L176.664 227.929C176.563 226.654 176.955 225.379 177.758 224.385L184.736 215.74C187.095 212.819 191.372 212.367 194.294 214.726L214.183 230.78Z" fill="#EE3A58"/>
<path d="M162.558 217.809C167.839 224.636 188.26 243.601 189.726 244.575C192.206 246.232 195.76 247.085 197.567 247.487C197.969 247.577 198.923 247.949 199.896 249.184C200.208 249.585 200.649 249.836 201.021 250.148C201.824 250.83 201.463 252.145 200.429 252.366C199.324 251.613 196.824 249.846 197.326 250.288C200.137 252.808 203.461 256.322 202.186 257.165C201.553 257.577 196.895 262.135 192.346 260.358C191.473 260.017 170.811 249.555 146.835 229.786C144.215 227.628 143.03 224.184 143.733 220.871C146.705 206.835 161.915 172.418 170.6 177.759C178.712 182.749 162.558 217.809 162.558 217.809Z" fill="#FEB28C"/>
<path d="M184.605 240.017C177.808 233.732 166.333 222.678 162.558 217.798C162.558 217.798 181.644 184.837 170.57 177.739C160.329 171.173 145.61 206.554 142.638 220.59C141.935 223.913 143.692 228.11 146.313 230.268C157.849 239.776 168.531 247.858 176.694 252.969C179.144 249.073 182.166 243.933 184.605 240.017Z" fill="#3041B0"/>
<path d="M431.961 422.101C435.877 415.937 442.152 412.563 449.993 412.563H463.828C471.338 412.563 477.964 416.308 481.95 422.041L431.961 422.101Z" fill="#03163C"/>
<path d="M427.925 441.187V434.631C427.925 422.443 437.804 412.563 449.993 412.563H463.828C476.016 412.563 485.896 422.443 485.896 434.631V441.187" stroke="#0D004F" stroke-width="3.2973" stroke-miterlimit="10"/>
<path d="M432.379 439.037C435.245 436.171 435.245 431.524 432.379 428.658C429.512 425.792 424.866 425.792 421.999 428.658C419.133 431.524 419.133 436.171 421.999 439.037C424.866 441.903 429.512 441.903 432.379 439.037Z" fill="#03163C"/>
<path d="M427.192 437.372C429.138 437.372 430.716 435.795 430.716 433.848C430.716 431.902 429.138 430.324 427.192 430.324C425.246 430.324 423.668 431.902 423.668 433.848C423.668 435.795 425.246 437.372 427.192 437.372Z" fill="white"/>
<path d="M457.282 356.781V411.831" stroke="#03163C" stroke-width="7.6937" stroke-miterlimit="10"/>
<path d="M466.82 412.563H447.734C447.734 408.919 450.696 405.957 454.34 405.957H460.214C463.868 405.957 466.82 408.909 466.82 412.563Z" fill="#0D004F"/>
<path d="M486.316 441.081C490.317 440.433 493.035 436.665 492.388 432.664C491.74 428.663 487.971 425.944 483.97 426.592C479.969 427.24 477.251 431.008 477.899 435.009C478.546 439.01 482.315 441.729 486.316 441.081Z" fill="#03163C"/>
<path d="M489.059 433.848C489.059 431.901 487.482 430.324 485.535 430.324C483.587 430.324 482.01 431.901 482.01 433.848C482.01 435.796 483.587 437.372 485.535 437.372C487.482 437.362 489.059 435.786 489.059 433.848Z" fill="white"/>
<path d="M496.056 237.105L460.434 235.779L431.71 343.729L419.552 347.786C415.586 347.786 423.899 353.036 423.899 357.002H429.662L492.251 357.042C497.261 357.042 501.558 353.498 502.512 348.589L518.576 265.879C521.498 251.412 510.805 237.747 496.056 237.105Z" fill="#0D004F"/>
<path d="M494.46 349.472L430.605 347.273L443.115 249.283C444.26 241.341 451.218 235.558 459.24 235.869L491.187 237.104C505.936 237.747 516.628 251.411 513.696 265.889L494.46 349.472Z" fill="#C2D6FF"/>
<path d="M498.677 226.854L496.056 237.104" stroke="#0D004F" stroke-width="3.0112" stroke-miterlimit="10"/>
<path d="M475.555 226.854L472.934 237.104" stroke="#0D004F" stroke-width="3.0112" stroke-miterlimit="10"/>
<path d="M505.855 228.53H460.475L470.193 200.378H511.377C514.841 200.378 517.271 203.792 516.136 207.065L509.661 225.819C509.108 227.446 507.572 228.53 505.855 228.53Z" fill="#0D004F"/>
<path d="M500.825 228.199H455.445L465.163 200.047H506.347C509.811 200.047 512.241 203.46 511.106 206.734L504.631 225.488C504.078 227.105 502.552 228.199 500.825 228.199Z" fill="white" stroke="white" stroke-miterlimit="10"/>
<path d="M353.98 444.612C376.476 444.612 394.713 443.865 394.713 442.945C394.713 442.025 376.476 441.278 353.98 441.278C331.485 441.278 313.248 442.025 313.248 442.945C313.248 443.865 331.485 444.612 353.98 444.612Z" fill="#ABC6FF"/>
<path d="M363.056 427.021L367.996 415.234H384.693L382.775 427.533C377.845 433.186 370.847 438.025 365.667 432.604L363.056 427.021Z" fill="#FFAF99"/>
<path d="M383.267 425.605C383.267 425.605 385.667 443.597 383.689 443.748L337.103 444.129C337.103 444.129 340.356 435.866 349.312 434.23C360.978 432.101 363.307 425.836 363.307 425.836C363.307 425.836 366.56 429.842 367.856 431.057C370.968 433.979 375.938 433.627 378.809 430.475L383.267 425.605Z" fill="#CE3052"/>
<path d="M483.516 316.953C483.516 335.236 468.838 350.065 450.726 350.065H415.024C412.935 350.065 411.74 352.475 409.07 357.816C409.07 357.816 384.783 421.339 384.361 421.339C384.361 421.339 363.458 421.67 363.348 421.439L378.257 339.302C378.629 337.244 379.251 335.226 380.155 333.328C386.42 320.206 396.982 318.891 405.395 318.73L483.516 316.953Z" fill="#18004C"/>
<path d="M462.784 317.907C462.784 317.907 466.007 337.917 447.292 337.274C436.891 336.913 425.264 336.501 412.403 336.782C403.267 336.983 398.046 343.459 394.14 355.226L373.508 421.5" stroke="white" stroke-width="0.3922" stroke-miterlimit="10"/>
<path d="M403.678 427.022L404.612 415.004L422.804 416.64L423.397 427.524L414.21 438.046L403.678 427.022Z" fill="#FFAF99"/>
<path d="M423.889 425.606C423.889 425.606 426.288 443.598 424.31 443.749L377.725 444.13C377.725 444.13 380.958 435.757 389.933 434.231C403.487 431.922 402.373 425.647 402.373 425.647L409.331 431.801C412.062 434.221 416.228 434 418.688 431.299L423.889 425.606Z" fill="#EE3A58"/>
<path d="M499.098 316.953C499.098 335.236 484.42 350.065 466.308 350.065H430.606C428.517 350.065 427.001 352.063 427.533 354.091L424.642 420.305C424.752 420.717 424.441 421.108 424.029 421.108H411.61C411.359 421.108 404.08 421.65 403.969 421.419L394.291 336.752C394.04 324.754 397.704 320.076 405.646 318.72L499.098 316.953Z" fill="#3041B0"/>
<path d="M478.366 317.907C478.366 317.907 481.589 337.917 462.874 337.274C452.473 336.913 435.686 337.154 422.825 337.435C413.688 337.636 407.212 346.431 409.722 355.216L414.401 420.586" stroke="white" stroke-width="0.3922" stroke-miterlimit="10"/>
<path d="M375.305 247.185L365.536 232.065L373.127 224.103C373.127 224.103 369.613 214.113 369.984 212.447C370.787 208.812 388.156 237.948 388.156 237.948L400.807 250.518L385.646 265.267L375.305 247.185Z" fill="#FFAF99"/>
<path d="M380.687 226.714C379.382 227.356 378.076 227.989 376.771 228.631C376.279 228.872 375.717 229.093 375.396 229.555C375.084 230.017 375.115 230.599 375.406 231.061C375.717 231.563 376.259 231.814 376.801 231.964C377.454 232.145 378.137 232.246 378.819 232.336C380.245 232.527 381.681 232.567 383.116 232.446C383.649 232.406 383.649 231.573 383.116 231.613C381.922 231.703 380.727 231.703 379.532 231.583C378.93 231.523 378.327 231.432 377.725 231.312C377.253 231.211 376.641 231.141 376.269 230.8C375.315 229.916 377.283 229.294 377.845 229.023C378.93 228.491 380.024 227.959 381.108 227.426C381.59 227.195 381.169 226.473 380.687 226.714Z" fill="#EA6F46"/>
<path d="M373.006 224.655C374.03 226.011 374.924 227.457 375.667 228.983C375.767 229.184 376.058 229.244 376.239 229.133C376.45 229.013 376.49 228.762 376.39 228.561C375.647 227.035 374.753 225.589 373.729 224.234C373.588 224.053 373.368 223.963 373.157 224.083C372.976 224.184 372.866 224.475 373.006 224.655Z" fill="#EA6F46"/>
<path d="M376.5 231.844C376.56 232.095 376.35 232.316 376.139 232.426C375.868 232.567 375.577 232.547 375.295 232.436C374.633 232.175 374.111 231.563 373.639 231.051C372.625 229.956 371.801 228.711 371.159 227.366C370.928 226.884 370.205 227.306 370.436 227.788C371.239 229.475 372.354 231.021 373.709 232.306C374.332 232.898 375.155 233.511 376.068 233.33C376.862 233.169 377.484 232.436 377.303 231.623C377.193 231.101 376.39 231.322 376.5 231.844Z" fill="#EA6F46"/>
<path d="M374.753 232.879C374.633 233.722 374.372 234.686 373.85 235.379C373.338 236.051 372.183 234.897 371.811 234.495C371.209 233.853 370.727 233.1 370.215 232.387C369.623 231.543 369.02 230.7 368.428 229.857C368.117 229.425 367.394 229.837 367.705 230.278C368.418 231.292 369.131 232.306 369.854 233.31C370.426 234.124 371.008 234.977 371.781 235.62C372.474 236.192 373.589 236.865 374.372 236.051C374.713 235.7 374.924 235.198 375.105 234.756C375.325 234.224 375.476 233.672 375.556 233.1C375.627 232.577 374.823 232.357 374.753 232.879Z" fill="#EA6F46"/>
<path d="M371.641 235.268C371.54 235.95 371.079 236.553 370.406 236.743C369.723 236.944 368.99 236.673 368.548 236.121C368.408 235.95 368.107 235.97 367.956 236.121C367.785 236.292 367.816 236.533 367.956 236.713C368.579 237.476 369.683 237.828 370.627 237.547C371.55 237.276 372.303 236.442 372.444 235.488C372.474 235.268 372.384 235.037 372.153 234.976C371.952 234.916 371.671 235.037 371.641 235.268Z" fill="#EA6F46"/>
<path d="M434.32 315.437C434.32 315.437 446.459 231.794 449.551 226.583C449.551 226.583 442.373 222.778 432.804 242.908C423.236 263.039 421.881 268.862 421.881 268.862L400.807 247.236L383.598 265.267L421.881 315.036L433.126 316.24" fill="#EE3A58"/>
<path d="M481.699 221.221C481.699 221.221 504.249 228.41 507.09 250.518C509.932 272.626 496.98 329.352 496.98 329.352C496.98 329.352 483.195 323.509 477.512 321.943C469.109 319.633 462.814 319.513 456.82 319.403L432.011 318.971L440.786 243.982C442.101 238.34 442.804 230.227 447.935 226.994L456.609 221.743L473.788 217.336L481.699 221.221Z" fill="#EE3A58"/>
<path d="M431.248 314.674C437.794 301.592 489.45 230.077 488.547 224.414C495.434 228.38 505.273 236.402 507.09 250.528C509.932 272.636 496.98 329.362 496.98 329.362C496.98 329.362 483.195 323.519 477.513 321.953C469.109 319.643 462.814 319.523 456.82 319.413L428.668 319.192C428.015 318.549 430.927 315.316 431.248 314.674Z" fill="#E87285"/>
<path d="M457.754 297.225L437.674 302.957C437.674 302.957 418.417 308.69 413.096 317.706L458.979 316.481L457.754 297.225Z" fill="#FFAF99"/>
<path d="M480.284 222.657C485.394 219.424 504.862 230.237 509.088 251.07C513.376 273.409 505.795 317.786 498.496 320.457C491.197 323.127 459.802 319.754 459.802 319.754C459.802 319.754 458.316 299.995 457.342 293.941L482.332 293.118C482.332 293.128 476.659 262.606 480.284 222.657Z" fill="#EE3A58"/>
<path d="M471.117 200.891L474.41 216.523L468.396 223.35C459.049 233.44 457.744 226.764 455.987 225.92L457.191 207.587L465.906 204.113L471.117 200.891Z" fill="#FFAF99"/>
<path d="M465.916 204.104L457.201 208.923C457.201 208.923 456.268 217.356 458.808 217.617C460.936 217.838 468.265 211.021 467.502 205.84" fill="#DE7454"/>
<path d="M471.187 202.989C471.187 202.989 472.362 196.513 470.886 198.32L466.98 183.782C466.98 183.782 464.531 186.593 462.131 188.25C459.732 189.907 454.129 188.973 452.643 188.32C451.167 187.668 451.469 181.021 451.469 181.021C451.469 181.021 441.79 175.68 448.798 168.501C455.304 163.662 471.669 174.033 471.669 174.033C471.669 174.033 477.332 172.608 477.763 179.766C477.763 179.766 483.275 178.431 474.671 198.461" fill="#18004C"/>
<path d="M451.288 180.68C448.366 202.627 449.179 209.143 451.238 210.85C454.189 213.3 459.551 211.824 462.161 210.83C466.438 209.203 469.46 204.655 470.404 203.31C470.866 202.647 476.267 203.762 475.535 198.631C475.002 194.846 472.984 196.061 471.96 196.955C471.659 197.216 471.197 197.085 471.067 196.714C470.314 194.475 468.848 185.509 467.041 183.33C462.593 177.969 458.979 183.029 455.916 183.531C451.499 184.254 452.633 181.744 451.499 180.84L451.288 180.68Z" fill="#FFAF99"/>
<path d="M449.922 199.345C449.922 199.345 451.569 200.238 455.705 200.037C455.705 200.037 453.356 202.879 451.76 202.236C450.173 201.604 449.922 199.345 449.922 199.345Z" fill="white"/>
<path d="M474.731 198.2L471.77 200.188C471.77 200.188 473.065 195.128 474.731 198.2Z" fill="#EA6F46"/>
<path d="M454.3 194.465C454.27 195.078 454.501 195.59 454.802 195.6C455.113 195.61 455.374 195.128 455.404 194.516C455.434 193.903 455.203 193.391 454.902 193.381C454.601 193.371 454.33 193.853 454.3 194.465Z" fill="#001C39"/>
<path d="M450.716 193.772C450.685 194.385 450.916 194.897 451.218 194.907C451.519 194.917 451.79 194.435 451.82 193.823C451.85 193.21 451.619 192.698 451.318 192.688C451.017 192.668 450.746 193.16 450.716 193.772Z" fill="#001C39"/>
<path d="M459.671 191.002C460.464 191.594 459.29 189.004 458.185 188.672C457.081 188.341 455.956 188.843 455.665 189.797C455.675 189.797 457.754 189.566 459.671 191.002Z" fill="#001C39"/>
<path d="M450.234 189.264C451.418 189.164 452.252 189.405 452.252 189.405C452.141 188.481 451.298 187.809 450.274 187.738" fill="#001C39"/>
<path d="M452.422 193.812L450.525 198.441C450.495 198.511 450.535 198.601 450.615 198.612L452.603 198.842C452.673 198.852 452.734 198.792 452.734 198.722L452.643 193.863C452.633 193.722 452.463 193.692 452.422 193.812Z" fill="#EA6F46"/>
<path d="M576.457 426.249C580.442 419.974 586.838 416.53 594.82 416.53H608.916C616.566 416.53 623.313 420.345 627.379 426.179L576.457 426.249Z" fill="#03163C"/>
<path d="M572.34 445.676V438.999C572.34 426.59 582.4 416.52 594.82 416.52H608.916C621.325 416.52 631.396 426.58 631.396 438.999V445.676" stroke="#0D004F" stroke-width="3.358" stroke-miterlimit="10"/>
<path d="M576.872 443.487C579.79 440.57 579.79 435.84 576.872 432.923C573.955 430.006 569.226 430.006 566.309 432.923C563.392 435.84 563.392 440.57 566.309 443.487C569.226 446.404 573.955 446.404 576.872 443.487Z" fill="#03163C"/>
<path d="M575.182 438.206C575.182 436.228 573.575 434.622 571.597 434.622C569.619 434.622 568.013 436.228 568.013 438.206C568.013 440.184 569.619 441.791 571.597 441.791C573.575 441.791 575.182 440.184 575.182 438.206Z" fill="white"/>
<path d="M602.24 359.724V415.787" stroke="#03163C" stroke-width="7.8354" stroke-miterlimit="10"/>
<path d="M611.958 416.53H592.521C592.521 412.815 595.533 409.803 599.247 409.803H605.231C608.946 409.803 611.958 412.815 611.958 416.53Z" fill="#0D004F"/>
<path d="M635.918 443.489C638.835 440.572 638.835 435.842 635.918 432.925C633.001 430.008 628.271 430.008 625.354 432.925C622.437 435.842 622.437 440.572 625.354 443.489C628.271 446.406 633.001 446.406 635.918 443.489Z" fill="#03163C"/>
<path d="M634.598 438.206C634.598 436.228 632.992 434.622 631.014 434.622C629.036 434.622 627.43 436.228 627.43 438.206C627.43 440.184 629.036 441.791 631.014 441.791C632.992 441.791 634.598 440.184 634.598 438.206Z" fill="white"/>
<path d="M641.727 237.838L605.442 236.492L576.186 346.43L563.796 350.557C559.75 350.557 568.224 355.898 568.224 359.944H574.097L637.831 359.984C642.932 359.984 647.309 356.38 648.283 351.37L664.638 267.134C667.63 252.406 656.747 238.49 641.727 237.838Z" fill="#0D004F"/>
<path d="M640.1 352.273L575.071 350.034L587.812 250.237C588.986 242.155 596.065 236.261 604.227 236.572L636.767 237.837C651.787 238.49 662.67 252.415 659.688 267.144L640.1 352.273Z" fill="#C2D6FF"/>
<path d="M644.397 227.406L641.727 237.838" stroke="#0D004F" stroke-width="3.0666" stroke-miterlimit="10"/>
<path d="M620.843 227.406L618.183 237.838" stroke="#0D004F" stroke-width="3.0666" stroke-miterlimit="10"/>
<path d="M651.706 229.113H605.482L615.382 200.449H657.329C660.853 200.449 663.333 203.923 662.178 207.256L655.582 226.352C655.019 227.999 653.463 229.113 651.706 229.113Z" fill="#0D004F"/>
<path d="M646.586 228.772H600.362L610.261 200.107H652.208C655.732 200.107 658.212 203.581 657.058 206.915L650.461 226.011C649.899 227.657 648.343 228.772 646.586 228.772Z" fill="white" stroke="white" stroke-miterlimit="10"/>
<path d="M581.677 452.623C581.677 451.469 545.684 450.615 527.793 450.615C509.901 450.615 495.394 451.549 495.394 452.704C495.394 453.858 509.901 454.792 527.793 454.792C545.684 454.792 581.677 453.778 581.677 452.623Z" fill="#ABC6FF"/>
<path d="M540.614 411.208C539.168 428.567 543.877 436.8 542.28 441.057C540.684 445.314 513.074 450.304 514.962 449.46C520.082 447.171 528.767 438.477 528.767 438.477C528.767 438.477 528.767 429.3 527.11 416.449L540.614 411.208Z" fill="#FFD5D2"/>
<path d="M526.839 428.287L552.521 426.58L548.284 349.091C548.284 349.091 608.042 353.318 611.095 338.71C614.147 324.101 610.593 301.271 610.593 301.271H584.147L582.23 308.991C582.23 308.991 527.833 307.967 524.098 317.485C520.353 326.993 517.953 354.934 526.839 428.287Z" fill="#CE3052"/>
<path d="M596.677 303.037C596.677 304.212 609.167 323.72 595.121 327.234C581.075 330.748 538.144 324.503 535.403 332.695C532.672 340.888 536.708 427.463 536.708 427.463" stroke="white" stroke-width="0.3922" stroke-miterlimit="10"/>
<path d="M606.406 302.847C606.406 302.847 560.754 315.477 544.158 327.033C527.562 338.589 562.983 436.6 562.983 436.6C562.983 436.6 557.421 442.834 550.122 449.23C548.556 450.595 567.079 445.877 571.437 444.581C575.141 443.477 576.758 444.652 573.676 432.875C569.308 416.158 565.794 341.531 565.071 339.734C564.348 337.936 624.558 351.209 623.886 334.714C623.213 318.208 606.406 302.847 606.406 302.847Z" fill="#FFD5D2"/>
<path d="M620.512 296.311C620.512 296.311 634.709 323.78 630.251 338.167C623.544 359.763 566.758 352.555 566.758 352.555L586.577 419.461L557.702 428.286C557.702 428.286 524.911 336.752 533.857 323.338C540.925 312.736 570.543 312.415 574.298 311.23C579.669 309.543 580.302 295.236 580.302 295.236L620.512 296.311Z" fill="#EE3A58"/>
<path d="M606.045 297.575C606.436 298.75 620.874 326.842 604.87 331.139C588.866 335.436 551.397 329.191 549.057 337.384C546.718 345.576 566.527 425.465 566.527 425.465" stroke="white" stroke-width="0.3922" stroke-miterlimit="10"/>
<path d="M555.413 444.17C555.413 444.17 554.519 449.732 560.533 446.399C566.547 443.055 574.559 434.381 574.559 434.381L577.591 448.206C577.862 449.421 576.888 450.565 575.643 450.485C574.86 450.435 574.188 449.913 573.957 449.16L572.611 444.802L571.878 447.664C571.346 449.742 569.65 451.308 567.531 451.67L548.967 454.852C545.905 455.465 544.068 451.579 546.477 449.602L555.413 444.17Z" fill="white"/>
<path d="M523.184 443.527C523.184 443.527 521.909 449.019 528.134 446.097C534.359 443.186 542.953 435.073 542.953 435.073L545.021 449.069C545.202 450.304 544.158 451.368 542.923 451.208C542.14 451.107 541.507 450.535 541.327 449.772L540.283 445.334L539.359 448.135C538.686 450.173 536.879 451.619 534.751 451.84L516.016 453.738C512.924 454.139 511.357 450.133 513.887 448.326L523.184 443.527Z" fill="white"/>
<path d="M626.416 212.688C627.771 208.049 627.841 205.047 627.008 198.24C626.175 191.423 620.572 191.062 620.572 191.062C614.348 189.254 601.446 184.224 596.286 192.889C595.011 195.027 590.613 203.18 594.318 207.035C594.318 207.035 596.677 221.151 607.48 227.477C611.506 229.826 624.368 219.706 626.416 212.688Z" fill="#000307" stroke="#000307" stroke-width="0.7001" stroke-miterlimit="10"/>
<path d="M603.976 221.753C604.368 218.199 601.808 214.997 598.253 214.605C594.699 214.213 591.497 216.774 591.105 220.328C590.713 223.882 593.274 227.085 596.828 227.476C600.382 227.878 603.585 225.308 603.976 221.753Z" stroke="#EE3A58" stroke-miterlimit="10"/>
<path d="M618.805 208.722C618.906 209.033 618.896 210.017 619.187 209.896C620.402 209.374 623.273 208.23 624.839 211.463C626.416 214.726 621.416 219.384 618.996 217.045C617.922 220.569 615.402 222.215 615.181 222.788C614.518 224.545 616.797 238.611 616.627 242.687C616.396 247.918 606.546 257.857 606.546 257.857C606.546 257.857 597.49 257.777 598.575 251.07C598.575 251.07 602.51 227.296 601.316 226.934C596.195 226.232 591.908 221.573 593.866 209.334C595.292 200.409 595.191 205.87 601.516 196.784C607.209 198.501 598.173 209.103 618.805 208.722Z" fill="#FFD5D2"/>
<path d="M601.235 226.934C601.235 226.934 607.008 226.462 608.615 225.177C608.615 225.177 602.008 232.285 601.235 226.934Z" fill="#000307"/>
<path d="M616.898 249.463L605.914 244.413C601.356 242.315 595.974 243.199 592.32 246.642L572.42 265.377C571.617 258.038 569.961 247.536 566.597 230.809L567.692 218.179C567.692 218.179 566.929 215.95 565.292 218.57C563.645 221.201 563.646 222.014 563.646 222.014C563.646 222.014 559.73 219.032 556.648 215.117C555.262 213.36 553.826 209.645 553.365 208.992C551.889 206.854 551.889 208.661 551.889 209.484C551.889 210.307 552.049 211.623 552.049 211.623C552.049 211.623 550.081 207.687 549.59 208.671C549.479 208.892 549.59 209.424 549.82 210.097C549.298 209.293 548.826 208.781 548.505 208.942C547.732 209.334 549.64 216.221 552.049 218.52C552.511 218.962 552.19 219.323 551.608 219.062C549.861 218.299 546.808 213.36 546.136 213.811C545.272 214.394 550.563 224.123 551.166 224.976C552.812 227.275 556.788 234.444 556.788 234.444C556.788 234.444 551.889 288.891 562.802 297.043C568.334 301.179 570.824 299.182 571.969 295.346C585.673 284.804 616.014 250.347 616.898 249.463Z" fill="#FFD5D2"/>
<path d="M605.884 257.145C605.362 257.034 604.9 256.854 604.488 256.633C598.253 255.358 592.019 254.072 585.784 252.797L572.42 265.377C571.698 258.771 571.547 249.424 568.826 235.448C564.79 239.605 559.67 244.083 555.955 248.52C555.292 265.237 555.493 291.572 562.822 297.044C568.354 301.18 571.336 301.22 575.342 297.375C584.91 290.016 599.227 268.972 609.328 257.858C608.173 257.627 607.028 257.396 605.884 257.145Z" fill="#3041B0"/>
<path d="M605.884 257.145C605.362 257.034 604.9 256.854 604.488 256.633C600.613 255.84 596.727 255.046 592.852 254.243C581.698 267.687 572.099 282.275 562.792 297.024C562.802 297.024 562.802 297.034 562.812 297.034C568.344 301.17 571.326 301.21 575.332 297.365C584.9 290.006 599.217 268.962 609.318 257.848C608.173 257.627 607.028 257.396 605.884 257.145Z" fill="#18004C"/>
<path d="M562.782 221.664C561.025 222.708 559.88 224.585 559.72 226.613C559.68 227.085 560.423 227.085 560.463 226.613C560.593 224.846 561.637 223.2 563.153 222.296C563.565 222.065 563.194 221.423 562.782 221.664Z" fill="#DBA1A1"/>
<path d="M551.969 211.382C552.612 213.782 554.148 215.88 556.236 217.205C556.638 217.466 557.009 216.824 556.608 216.563C554.68 215.328 553.264 213.39 552.672 211.181C552.562 210.73 551.849 210.92 551.969 211.382Z" fill="#DBA1A1"/>
<path d="M549.419 210.288C550.001 211.824 550.684 213.33 551.457 214.776C552.12 216 552.823 217.336 554.057 218.059C554.469 218.3 554.841 217.657 554.429 217.416C553.274 216.733 552.642 215.408 552.029 214.274C551.307 212.918 550.674 211.523 550.132 210.087C549.971 209.655 549.248 209.846 549.419 210.288Z" fill="#DBA1A1"/>
<path d="M554.108 218.521C555.021 217.898 556.015 217.416 557.07 217.105C557.521 216.974 557.331 216.252 556.869 216.392C555.754 216.723 554.69 217.225 553.726 217.878C553.566 217.988 553.485 218.199 553.596 218.38C553.706 218.551 553.947 218.631 554.108 218.521Z" fill="#DBA1A1"/>
<path d="M633.454 248.179C633.454 248.179 624.568 243.089 619.287 240.991C619.116 237.918 613.394 246.462 606.386 245.458C602.721 244.936 602.932 245.247 601.958 242.336C601.958 242.336 582.3 261.171 580.563 269.825C578.926 277.998 575.011 308.57 575.011 311.773L630.642 310.558C630.642 310.558 637.078 259.183 633.454 248.179Z" fill="#3041B0"/>
<path d="M633.454 248.179L575.844 305.859L626.004 306.32C625.994 306.32 634.478 261.934 633.454 248.179Z" fill="#18004C"/>
<path d="M562.611 311.179C562.611 311.179 604.247 311.882 623.665 311.551C643.082 311.23 641.215 291.13 640.863 283.489C640.482 275.206 642.55 253.048 634.799 248.66C633.534 247.948 634.207 248.148 632.289 247.405L632.319 247.315C629.96 246.512 621.737 242.114 621.737 242.114C621.627 245.759 623.574 257.807 623.665 264.714C623.695 274.664 619.679 292.124 618.183 293.619C612.249 299.553 595.673 300.778 585.593 300.949C585.593 300.949 574.91 295.256 573.997 295.718C573.083 296.17 580.131 301.18 580.131 301.18C580.131 301.18 563.294 295.266 561.929 297.083C560.563 298.9 573.073 302.314 571.939 303.228C570.804 304.141 561.015 299.362 559.881 301.41C558.746 303.459 571.025 306.872 571.025 306.872C571.025 306.872 560.101 304.141 559.65 306.19C559.198 308.238 570.553 310.135 570.553 310.135C570.553 310.135 563.063 307.535 562.611 311.179Z" fill="#FFD5D2"/>
<path d="M640.863 283.5C640.602 277.787 641.496 265.488 639.548 256.964C634.217 259.022 628.926 261.191 623.625 263.329C623.645 263.811 623.655 264.283 623.665 264.725C623.695 274.674 619.679 292.134 618.183 293.63C614.287 297.525 605.814 299.393 597.601 300.256C598.063 302.455 598.595 304.584 598.916 306.421C599.217 308.158 599.559 309.885 599.89 311.612C608.695 311.662 617.35 311.662 623.665 311.561C643.082 311.23 641.215 291.13 640.863 283.5Z" fill="#3041B0"/>
<path d="M619.538 213.48C621.747 208.56 623.444 212.556 623.444 212.556L619.538 213.48Z" fill="#DBA1A1"/>
<path d="M606.325 214.585C604.699 214.927 603.665 216.533 604.016 218.149C604.358 219.776 605.964 220.81 607.58 220.459C609.207 220.117 610.241 218.511 609.89 216.894C609.538 215.268 607.942 214.234 606.325 214.585Z" fill="#FFBBBB"/>
<path d="M594.418 220.83C595.703 220.268 596.456 218.872 596.155 217.447C595.924 216.352 594.499 215.559 593.505 215.248C593.505 215.248 593.414 218.782 594.418 220.83Z" fill="#FFBBBB"/>
<path d="M595.302 217.928L600.422 217.918C600.422 217.918 599.147 220.378 597.661 220.127C596.185 219.876 595.302 217.928 595.302 217.928Z" fill="white"/>
<path d="M598.545 211.101L598.836 216.813L597.099 216.773C596.767 216.783 598.545 211.101 598.545 211.101Z" fill="#DBA1A1"/>
<path d="M603.725 209.062C604.308 209.424 603.344 207.717 602.571 207.567C601.798 207.406 600.673 207.516 600.703 208.169C600.753 208.882 602.33 208.199 603.725 209.062Z" fill="black"/>
<path d="M594.278 210.318C593.745 210.739 594.498 208.942 595.251 208.691C596.004 208.44 597.069 208.5 596.998 209.414C596.948 210.137 595.573 209.304 594.278 210.318Z" fill="black"/>
<path d="M601.557 213.36C601.567 213.952 601.336 214.434 601.055 214.434C600.763 214.434 600.533 213.963 600.523 213.37C600.512 212.778 600.743 212.296 601.025 212.296C601.316 212.296 601.557 212.778 601.557 213.36Z" fill="black"/>
<path d="M596.577 213.219C596.587 213.781 596.366 214.243 596.095 214.243C595.824 214.243 595.593 213.791 595.583 213.229C595.573 212.667 595.794 212.205 596.065 212.205C596.346 212.205 596.577 212.657 596.577 213.219Z" fill="black"/>
<path d="M616.064 193.209C614.85 191.914 609.388 189.866 612.048 181.262C612.41 180.087 612.51 178.792 613.263 177.818C614.358 176.422 616.315 175.91 618.062 176.222C619.809 176.533 621.356 177.537 622.681 178.722C624.669 180.499 626.305 182.798 626.837 185.418C627.37 188.039 626.677 190.98 624.679 192.768C622.691 194.545 619.358 194.816 617.35 193.059" fill="#000307"/>
<path d="M622.209 228.641C625.785 228.641 628.685 225.742 628.685 222.165C628.685 218.589 625.785 215.689 622.209 215.689C618.632 215.689 615.733 218.589 615.733 222.165C615.733 225.742 618.632 228.641 622.209 228.641Z" stroke="#EE3A58" stroke-miterlimit="10"/>
<path d="M404.046 316.585H449.508V311.254H404.046V316.585Z" fill="#000307"/>
<path d="M449.501 311.26H419.803L422.132 316.591H449.501V311.26Z" fill="#3041B0"/>
<path d="M347.213 316.591H418.869L401.57 267.174H329.915L347.213 316.591Z" fill="#3041B0"/>
<path d="M370.175 293.267C370.175 290.788 372.193 288.77 374.673 288.77C377.153 288.77 379.171 290.788 379.171 293.267C379.171 295.747 377.153 297.765 374.673 297.765C372.193 297.765 370.175 295.757 370.175 293.267Z" fill="#000307"/>
<path d="M565.261 316.573H611.074V311.202H565.261V316.573Z" fill="#000307"/>
<path d="M611.075 311.21H581.135L583.485 316.581H611.075V311.21Z" fill="white" stroke="white" stroke-width="1.0184" stroke-miterlimit="10"/>
<path d="M507.984 316.581H580.192L562.762 266.772H490.554L507.984 316.581Z" fill="white"/>
<path d="M531.126 293.077C531.126 290.577 533.154 288.539 535.664 288.539C538.164 288.539 540.202 290.567 540.202 293.077C540.202 295.587 538.174 297.615 535.664 297.615C533.154 297.615 531.126 295.577 531.126 293.077Z" fill="#000307"/>
<path d="M275.729 453.959C283.037 453.959 288.961 453.289 288.961 452.463C288.961 451.637 283.037 450.967 275.729 450.967C268.42 450.967 262.496 451.637 262.496 452.463C262.496 453.289 268.42 453.959 275.729 453.959Z" fill="#ABC6FF"/>
<path d="M659.678 453.959C666.986 453.959 672.911 453.289 672.911 452.463C672.911 451.637 666.986 450.967 659.678 450.967C652.37 450.967 646.446 451.637 646.446 452.463C646.446 453.289 652.37 453.959 659.678 453.959Z" fill="#ABC6FF"/>
<path d="M284.303 453.296C282.495 453.296 281.009 451.82 280.949 449.953L294.764 332.435H309.915L287.666 449.953C287.586 451.82 286.1 453.296 284.303 453.296Z" fill="white"/>
<path d="M299.714 340.667C302.385 337.967 305.095 335.135 307.907 332.435H294.754L292.957 347.695C295.186 345.326 297.435 342.977 299.714 340.667Z" fill="#18004C"/>
<path d="M667.801 453.296C669.608 453.296 671.094 451.82 671.154 449.953L657.339 332.435H642.188L664.437 449.953C664.507 451.82 665.993 453.296 667.801 453.296Z" fill="white"/>
<path d="M659.076 347.204L657.339 332.425H642.831C648.433 337.154 653.825 342.093 659.076 347.204Z" fill="#18004C"/>
<path d="M671.355 334.061H283.66C280.919 334.061 278.69 331.832 278.69 329.091C278.69 326.35 280.919 324.121 283.66 324.121H671.365C674.106 324.121 676.335 326.35 676.335 329.091C676.335 331.842 674.106 334.061 671.355 334.061Z" fill="white"/>
<path d="M685.842 327.756H269.172C266.221 327.756 263.831 325.366 263.831 322.415C263.831 319.463 266.221 317.073 269.172 317.073H685.842C688.794 317.073 691.184 319.463 691.184 322.415C691.184 325.366 688.794 327.756 685.842 327.756Z" fill="#18004C"/>
</svg>
