<svg width="154" height="39" viewBox="0 0 154 39" fill="none" xmlns="http://www.w3.org/2000/svg">
<path d="M125.465 2.39492H109.95C109.95 2.39492 106.66 2.28484 106.188 5.12986L103.486 21.3728C103.481 21.3909 103.473 21.4079 103.462 21.4229L103.01 24.1445H106.542C106.564 24.1232 106.593 24.1112 106.623 24.1111H121.507C121.522 24.1091 121.537 24.1111 121.551 24.117C121.564 24.1229 121.576 24.1324 121.585 24.1445H125.084L128.147 5.74355C128.751 2.16809 125.465 2.39492 125.465 2.39492ZM122.088 21.3728C122.082 21.4103 122.062 21.4444 122.034 21.4694C122.005 21.4944 121.968 21.5085 121.929 21.5096H107.045C107.028 21.5101 107.011 21.5067 106.996 21.4996C106.98 21.4925 106.966 21.4818 106.955 21.4686C106.945 21.4553 106.937 21.4398 106.933 21.4232C106.93 21.4066 106.93 21.3893 106.934 21.3728L109.413 6.47067C109.666 4.94643 111.271 4.99978 111.271 4.99978H113.081C113.096 4.99884 113.112 5.00169 113.126 5.00809C113.14 5.01449 113.152 5.02424 113.162 5.03646C113.175 5.04794 113.185 5.06267 113.19 5.07909C113.195 5.09551 113.196 5.11303 113.192 5.12986C112.905 6.79752 111.598 13.1847 107.876 18.9781L111.271 18.9547C114.648 13.7583 116.053 6.94761 116.377 5.12652C116.384 5.0909 116.403 5.0588 116.432 5.03569C116.46 5.01258 116.496 4.99988 116.532 4.99978H118.322C118.339 4.99886 118.356 5.0018 118.371 5.00833C118.386 5.01486 118.4 5.02479 118.411 5.0374C118.422 5.05001 118.429 5.06492 118.433 5.08097C118.437 5.09701 118.437 5.11375 118.434 5.12986L116.12 19.0448H121.524L121.97 16.3765H119.724C119.707 16.3771 119.691 16.3739 119.676 16.3671C119.661 16.3603 119.649 16.3502 119.638 16.3375C119.628 16.3249 119.621 16.3101 119.618 16.2942C119.614 16.2784 119.615 16.2621 119.619 16.2465L121.47 5.12652C121.475 5.09112 121.493 5.05876 121.52 5.035C121.548 5.01124 121.582 4.99758 121.619 4.99644H123.155C123.155 4.99644 124.793 5.06651 124.543 6.56406L122.088 21.3728Z" fill="white"/>
<path d="M101.78 10.1529L102.611 5.14991C103.07 2.39494 100.126 2.37824 100.126 2.37824H91.6012L90.3111 10.1362C90.3044 10.1728 90.2855 10.2062 90.2573 10.231C90.2292 10.2558 90.1934 10.2706 90.1557 10.2729H89.2844L88.8522 12.8778H89.7201C89.7364 12.877 89.7527 12.8799 89.7677 12.8862C89.7828 12.8926 89.7962 12.9022 89.807 12.9144C89.8177 12.9267 89.8255 12.9411 89.8297 12.9567C89.834 12.9723 89.8346 12.9887 89.8315 13.0045L88.9567 18.261C88.9507 18.2891 88.938 18.3154 88.9196 18.3377L88.4772 21.006H96.5658C96.5826 21.0052 96.5993 21.0082 96.6148 21.0147C96.6303 21.0212 96.644 21.0311 96.6551 21.0436C96.6661 21.0561 96.6742 21.0709 96.6786 21.0869C96.6831 21.103 96.6837 21.1197 96.6806 21.136L96.5759 21.7831C96.5759 21.7831 96.5522 22.3301 95.8025 22.3301H92.2362L91.9321 24.1378H97.3899C99.4804 24.1378 99.7945 22.16 99.7945 22.16L99.9634 21.136C99.971 21.0998 99.9908 21.0672 100.02 21.0436C100.048 21.02 100.085 21.0067 100.122 21.006H100.862L101.294 18.4044H100.558C100.54 18.4052 100.523 18.4021 100.507 18.3954C100.492 18.3888 100.478 18.3786 100.466 18.3658C100.455 18.353 100.447 18.3378 100.442 18.3214C100.437 18.305 100.436 18.2878 100.439 18.271L101.314 13.0146C101.323 12.979 101.343 12.9471 101.372 12.9241C101.4 12.9012 101.436 12.8884 101.473 12.8878H102.459L102.895 10.2829H101.909C101.891 10.2845 101.873 10.2823 101.857 10.2762C101.84 10.2702 101.825 10.2607 101.813 10.2482C101.801 10.2357 101.791 10.2207 101.786 10.2042C101.78 10.1877 101.778 10.1702 101.78 10.1529ZM97.1602 18.2777C97.1532 18.3145 97.1336 18.3479 97.1047 18.3722C97.0759 18.3964 97.0395 18.4102 97.0015 18.4111H96.2146C96.1838 18.4111 96.1542 18.3993 96.1321 18.3781C96.1101 18.3569 96.0972 18.3281 96.0963 18.2977L96.1808 14.8623H93.9181L93.8404 18.2677C93.8376 18.3047 93.8207 18.3392 93.7931 18.3644C93.7797 18.3787 93.7634 18.3901 93.7454 18.3981C93.7275 18.4062 93.7081 18.4106 93.6884 18.4111H92.3375C92.3208 18.4109 92.3043 18.4071 92.2893 18.4C92.2743 18.3928 92.261 18.3826 92.2504 18.3699C92.2398 18.3572 92.2322 18.3424 92.228 18.3264C92.2237 18.3105 92.223 18.2939 92.226 18.2777L93.1006 13.0212C93.1093 12.9864 93.1292 12.9553 93.1572 12.9325C93.1852 12.9097 93.2197 12.8963 93.256 12.8945H97.9167C97.9334 12.8932 97.9501 12.8956 97.9656 12.9017C97.981 12.9079 97.9948 12.9174 98.006 12.9297C98.0171 12.942 98.0253 12.9566 98.0297 12.9725C98.0341 12.9884 98.0347 13.0051 98.0315 13.0212L97.1602 18.2777ZM98.5111 10.1529C98.5049 10.1898 98.4862 10.2235 98.458 10.2484C98.4297 10.2732 98.3936 10.2878 98.3557 10.2896H97.5081C97.4925 10.2906 97.4767 10.2883 97.4621 10.2828C97.4475 10.2772 97.4343 10.2686 97.4233 10.2575C97.4124 10.2464 97.404 10.2331 97.3988 10.2185C97.3936 10.2039 97.3917 10.1883 97.3932 10.1729L97.427 6.67079H95.1676L95.1338 10.1395C95.133 10.1596 95.1278 10.1793 95.1184 10.1972C95.1091 10.215 95.096 10.2306 95.0799 10.2429C95.0668 10.2576 95.0506 10.2695 95.0325 10.2775C95.0145 10.2856 94.995 10.2897 94.9751 10.2896H93.6917C93.6747 10.2895 93.658 10.2856 93.6427 10.2783C93.6274 10.271 93.614 10.2604 93.6033 10.2473C93.5926 10.2343 93.585 10.219 93.581 10.2026C93.5771 10.1863 93.5769 10.1693 93.5804 10.1529L94.4179 5.12988C94.4243 5.09365 94.4433 5.06079 94.4717 5.03701C94.5001 5.01323 94.536 5.00004 94.5733 4.9998H98.3219C98.3219 4.9998 99.3858 4.89976 99.2339 5.81697L98.5111 10.1529Z" fill="white"/>
<path d="M85.1202 19.3783C85.1235 19.3428 85.1376 19.3091 85.1607 19.2816C85.5837 18.7927 85.9784 18.2804 86.3428 17.7474C87.0378 16.738 87.4799 15.5799 87.6328 14.3687L88.8284 7.17443C88.8362 7.13853 88.8563 7.10634 88.8851 7.08327C88.914 7.0602 88.9501 7.04764 88.9872 7.04768H89.916L90.3482 4.43949H89.4194C89.4023 4.44039 89.3852 4.43735 89.3695 4.43065C89.3537 4.42395 89.3397 4.41376 89.3286 4.40085C89.3175 4.38794 89.3095 4.37267 89.3053 4.35623C89.3012 4.33978 89.301 4.32262 89.3047 4.30607L89.6897 2.00803H86.4205L86.0354 4.30607C86.0312 4.34292 86.0135 4.37695 85.9854 4.40158C85.9574 4.42622 85.9211 4.43972 85.8835 4.43949H84.492C84.4749 4.44039 84.4578 4.43735 84.4421 4.43065C84.4263 4.42395 84.4123 4.41376 84.4012 4.40085C84.3901 4.38794 84.3821 4.37267 84.3779 4.35623C84.3738 4.33978 84.3736 4.32262 84.3773 4.30607L84.7622 2.00803H81.4863L81.1045 4.30607C81.099 4.34235 81.0808 4.37557 81.0531 4.39995C81.0253 4.42433 80.9898 4.43833 80.9526 4.43949H80.2772L79.8448 7.04768H80.5203C80.5365 7.04674 80.5528 7.04955 80.5678 7.05591C80.5827 7.06226 80.596 7.07198 80.6065 7.08429C80.617 7.09659 80.6245 7.11115 80.6283 7.12679C80.6321 7.14244 80.6321 7.15876 80.6284 7.17443L79.4329 14.3554C79.1914 15.4803 79.2496 16.6479 79.6017 17.7441C79.7853 18.2734 80.0112 18.7876 80.2772 19.2816C80.284 19.2969 80.2874 19.3133 80.2874 19.33C80.2874 19.3466 80.284 19.3631 80.2772 19.3783C80.2724 19.3965 80.2639 19.4136 80.2523 19.4285C80.2407 19.4434 80.2262 19.4558 80.2096 19.4651C79.393 19.9595 78.542 20.3964 77.6631 20.7725L77.0991 24.1612C78.9347 23.7915 80.6704 23.0424 82.1921 21.9632C82.2171 21.941 82.2497 21.9291 82.2833 21.9299C82.2968 21.9301 82.3101 21.9332 82.3224 21.9389C82.3346 21.9447 82.3455 21.9529 82.3542 21.9632C83.5837 23.0677 85.0904 23.8267 86.7176 24.1612L87.2816 20.7725C86.5375 20.402 85.8299 19.9643 85.1675 19.4651C85.1539 19.4547 85.1425 19.4416 85.1343 19.4267C85.1262 19.4118 85.1214 19.3953 85.1202 19.3783ZM84.2658 14.9491V14.9957C84.0767 15.7122 83.7217 16.3756 83.2289 16.9336C83.2156 16.9523 83.198 16.9676 83.1774 16.9781C83.1568 16.9886 83.1339 16.9939 83.1108 16.9936C83.0886 16.9963 83.0661 16.9919 83.0466 16.9811C83.0272 16.9703 83.0118 16.9536 83.0026 16.9336C82.6934 16.3346 82.559 15.6625 82.6143 14.9924C82.6126 14.978 82.6126 14.9635 82.6143 14.9491L83.9078 7.17443C83.9154 7.13909 83.9348 7.10734 83.963 7.08433C83.9912 7.06132 84.0265 7.0484 84.0631 7.04768H85.4546C85.4711 7.04619 85.4877 7.04861 85.5031 7.05473C85.5185 7.06084 85.5323 7.07048 85.5432 7.08286C85.554 7.09524 85.5618 7.11001 85.5657 7.12594C85.5697 7.14186 85.5699 7.15847 85.5661 7.17443L84.2658 14.9491Z" fill="white"/>
<path d="M57.2305 21.2261L59.0476 10.2996C59.5204 7.46125 56.9637 7.55798 56.9637 7.55798H54.1606L53.7284 10.1595H54.7246C54.7246 10.1595 55.7175 10.0761 55.5554 11.05L53.7417 21.9499C53.7551 22.2315 53.825 22.5077 53.9474 22.7624C54.0697 23.0171 54.2422 23.2453 54.4546 23.4337C54.667 23.6221 54.9153 23.7669 55.1848 23.8597C55.4544 23.9525 55.7399 23.9915 56.0249 23.9744H58.9429L59.3751 21.3728H57.3487C57.3296 21.3762 57.3099 21.3743 57.2917 21.3675C57.2735 21.3607 57.2576 21.3492 57.2455 21.3342C57.2334 21.3191 57.2255 21.3012 57.2229 21.2822C57.2203 21.2631 57.2229 21.2438 57.2305 21.2261Z" fill="white"/>
<path d="M75.4139 2.99193L75.5861 1.94797H72.3102L72.1379 2.99193C72.1303 3.02727 72.1109 3.05902 72.0826 3.08203C72.0544 3.10504 72.0191 3.11796 71.9826 3.11867H68.3452C68.3289 3.11947 68.3126 3.11659 68.2975 3.11025C68.2825 3.1039 68.269 3.09428 68.2583 3.08207C68.2476 3.06986 68.2398 3.05542 68.2355 3.03981C68.2313 3.0242 68.2306 3.00781 68.2337 2.99193L68.4061 1.94797H65.1335L64.9612 2.99193C64.9532 3.02647 64.934 3.05754 64.9066 3.0804C64.8792 3.10326 64.8449 3.11667 64.8091 3.11867H62.6241L62.1917 5.72691H64.3736C64.3903 5.72599 64.4069 5.72889 64.4222 5.73542C64.4376 5.74195 64.4512 5.75192 64.462 5.76453C64.4728 5.77714 64.4806 5.79205 64.4846 5.8081C64.4886 5.82414 64.4886 5.84088 64.4849 5.85699L64.1742 7.71141H67.4468L67.7575 5.85699C67.7631 5.82104 67.7816 5.78819 67.8094 5.76437C67.8373 5.74054 67.8727 5.72728 67.9095 5.72691H71.5401C71.5571 5.72544 71.5741 5.72795 71.5899 5.73424C71.6057 5.74053 71.6198 5.75038 71.631 5.76307C71.6422 5.77575 71.6502 5.79088 71.6544 5.8072C71.6585 5.82352 71.6587 5.84059 71.6549 5.85699L71.3442 7.71141H74.6202L74.9276 5.85699C74.9346 5.82104 74.9536 5.78853 74.9819 5.76486C75.0101 5.74119 75.0459 5.72779 75.083 5.72691H77.3895L77.8219 3.11867H75.5152C75.4997 3.11799 75.4845 3.11402 75.4707 3.10703C75.4568 3.10004 75.4448 3.09023 75.4352 3.0782C75.4256 3.06618 75.4188 3.05225 75.4151 3.03737C75.4114 3.02248 75.411 3.00697 75.4139 2.99193Z" fill="white"/>
<path d="M68.8788 9.64257C68.8682 9.6237 68.8625 9.60244 68.8625 9.58084C68.8625 9.55925 68.8682 9.53803 68.8788 9.51916C69.2166 8.97551 69.3956 8.682 69.4902 8.51857H65.7751C65.7008 8.69868 65.5354 9.08891 65.2753 9.60254C65.2625 9.62867 65.2429 9.65102 65.2186 9.6674C65.1943 9.68378 65.1661 9.69363 65.1368 9.69594H61.4015L60.9693 12.3008H63.3131C63.336 12.2987 63.3591 12.3037 63.379 12.315C63.399 12.3264 63.4149 12.3436 63.4246 12.3642C63.4337 12.3874 63.4356 12.4128 63.4302 12.4371C63.4248 12.4614 63.4122 12.4836 63.3941 12.5009C62.3606 13.725 61.2562 14.5021 60.108 14.8356L59.5507 18.1709C60.2693 17.9554 60.9667 17.6763 61.6345 17.3371C61.6779 17.3204 61.7261 17.3204 61.7696 17.3371C61.7877 17.3494 61.8016 17.3668 61.8095 17.3871C61.8173 17.4073 61.8188 17.4295 61.8136 17.4506L60.7295 23.9577H64.0763C64.0957 23.9461 64.1177 23.9392 64.1404 23.9377H70.3716C70.3954 23.9388 70.4187 23.9457 70.4392 23.9577H73.7759L75.0086 16.5366C75.397 14.2019 73.0058 14.2019 73.0058 14.2019H66.0385C66.0164 14.2019 65.9948 14.1952 65.9767 14.1827C65.9585 14.1701 65.9448 14.1524 65.9372 14.1319C65.9289 14.1088 65.927 14.0839 65.9318 14.0599C65.9365 14.0358 65.9478 14.0134 65.9643 13.9951C66.3342 13.5587 66.6727 13.0974 66.9775 12.6143L67.1226 12.3775C67.1368 12.353 67.1568 12.3323 67.181 12.3172C67.2051 12.3021 67.2326 12.293 67.2611 12.2908H76.3156L76.7479 9.68593H68.9801C68.9609 9.68739 68.9417 9.6842 68.924 9.67665C68.9064 9.66909 68.8909 9.65739 68.8788 9.64257ZM70.7025 16.8202C70.7025 16.8202 71.6921 16.7601 71.5536 17.5939L70.9525 21.2161C70.945 21.2527 70.9252 21.2857 70.8965 21.3099C70.8677 21.3341 70.8315 21.348 70.7937 21.3495H64.5931C64.5758 21.3512 64.5583 21.3486 64.5421 21.3422C64.526 21.3357 64.5117 21.3255 64.5004 21.3124C64.4891 21.2993 64.4812 21.2837 64.4773 21.2669C64.4735 21.2502 64.4737 21.2327 64.4781 21.2161L65.1874 16.9536C65.1938 16.9164 65.2131 16.8827 65.2422 16.8583C65.2712 16.8339 65.3081 16.8204 65.3462 16.8202H70.7025Z" fill="white"/>
<path d="M57.6324 6.1338C58.2086 6.11461 58.761 5.90187 59.1982 5.53074C59.6354 5.15961 59.9313 4.65229 60.0371 4.09259C60.0915 3.84185 60.0874 3.58216 60.0252 3.33319C59.963 3.08422 59.8444 2.85247 59.6781 2.6555C59.5118 2.45853 59.3024 2.30149 59.0656 2.19624C58.8288 2.091 58.5709 2.04033 58.3113 2.04804C57.7339 2.0671 57.1802 2.28008 56.7418 2.65179C56.3034 3.02351 56.0064 3.53173 55.8999 4.09259C55.8459 4.34367 55.8506 4.60359 55.9134 4.85264C55.9763 5.1017 56.0957 5.33334 56.2627 5.53005C56.4297 5.72675 56.6396 5.88336 56.877 5.98796C57.1143 6.09257 57.3727 6.14243 57.6324 6.1338Z" fill="white"/>
<path d="M143.223 7.10106C143.234 7.11869 143.239 7.13884 143.239 7.1594C143.239 7.17997 143.234 7.20016 143.223 7.21779C142.389 8.79206 140.028 12.7377 136.249 15.4827L135.479 20.1054C136.772 19.1315 142.666 14.5421 144.74 10.7666C144.754 10.7418 144.775 10.7212 144.799 10.7066C144.824 10.692 144.852 10.6839 144.881 10.6832C144.909 10.6849 144.935 10.6969 144.953 10.7167C144.972 10.7365 144.983 10.7627 144.983 10.7899C144.983 10.8333 145.131 15.2626 151.173 20.2589L151.967 15.4794C151.538 15.1258 148.492 12.4476 147.218 7.21779C147.212 7.19697 147.211 7.17469 147.216 7.15346C147.221 7.13223 147.233 7.11291 147.249 7.09772C147.264 7.08004 147.283 7.06605 147.305 7.0568C147.327 7.04756 147.35 7.04329 147.374 7.04435H153.564L154 4.43615H147.711C147.694 4.43722 147.677 4.43427 147.662 4.42756C147.646 4.42085 147.632 4.41057 147.621 4.39755C147.61 4.38453 147.603 4.36913 147.599 4.35264C147.595 4.33616 147.596 4.31906 147.6 4.30273L148.002 1.88796H144.395L143.993 4.30273C143.987 4.33929 143.968 4.37257 143.94 4.3969C143.911 4.42123 143.875 4.43512 143.838 4.43615H137.566L137.127 7.04435H143.135C143.154 7.04565 143.171 7.05157 143.187 7.06149C143.202 7.07141 143.214 7.08502 143.223 7.10106Z" fill="white"/>
<path d="M151.426 21.7965L151.518 21.2628H135.692C133.746 21.2628 133.881 19.0048 133.881 19.0048C133.876 18.9919 133.876 18.9777 133.881 18.9648L135.445 9.55253C135.783 7.52465 133.48 7.55134 133.48 7.55134H130.393L129.96 10.1529H130.974C131.091 10.1455 131.209 10.166 131.317 10.2127C131.425 10.2594 131.52 10.3309 131.595 10.4213C131.669 10.5117 131.721 10.6184 131.745 10.7324C131.769 10.8464 131.765 10.9645 131.733 11.0767L129.559 24.1479H131.045C133.071 24.1479 133.304 22.4802 133.304 22.4802C133.304 23.8143 135.074 23.8944 135.09 23.8944H148.937C151.204 23.9544 151.426 21.7965 151.426 21.7965Z" fill="white"/>
<path d="M133.895 6.21718C134.469 6.19788 135.019 5.98572 135.455 5.61579C135.89 5.24585 136.184 4.7403 136.29 4.18264C136.346 3.93289 136.344 3.67359 136.283 3.42483C136.222 3.17607 136.104 2.94451 135.937 2.74812C135.771 2.55172 135.562 2.39575 135.324 2.29228C135.087 2.1888 134.829 2.14063 134.57 2.15145C133.997 2.16998 133.447 2.38142 133.011 2.7508C132.576 3.12018 132.281 3.62534 132.176 4.18264C132.119 4.43263 132.12 4.69229 132.181 4.94148C132.242 5.19067 132.36 5.42269 132.526 5.61949C132.693 5.81629 132.903 5.97256 133.14 6.07622C133.377 6.17988 133.636 6.22812 133.895 6.21718Z" fill="white"/>
<path d="M55.3021 31.7223L60.4457 38.5898H63.1138L64.9375 27.6199H61.9959L60.8713 34.3739L55.6669 27.6199H53.0022L51.1785 38.5898H54.1606L55.3021 31.7223Z" fill="white"/>
<path d="M77.0349 34.0337C76.929 34.762 76.6812 35.463 76.3054 36.0982C75.9714 36.6482 75.5322 37.1286 75.012 37.5124C74.5022 37.8808 73.9305 38.1574 73.3233 38.3296C72.6954 38.5019 72.0465 38.5894 71.3948 38.5898C70.7661 38.5929 70.1403 38.5053 69.5373 38.3296C68.9952 38.173 68.4979 37.8931 68.0851 37.5124C67.681 37.1232 67.3886 36.6353 67.2375 36.0982C67.0582 35.4237 67.0361 34.7178 67.1732 34.0337C67.2807 33.2931 67.5258 32.5785 67.8959 31.9258C68.2149 31.3769 68.6462 30.8998 69.1624 30.5249C69.6698 30.1595 70.2428 29.8924 70.8511 29.7378C71.5132 29.5711 72.1941 29.4882 72.8774 29.491C73.5366 29.4828 74.1938 29.5659 74.8296 29.7378C75.3611 29.8778 75.848 30.1486 76.2447 30.5249C76.6306 30.9099 76.8967 31.396 77.0113 31.9258C77.1606 32.6199 77.1686 33.3365 77.0349 34.0337ZM73.9277 34.0337C73.9852 33.7002 74.0292 33.3433 74.0562 33.0131C74.0855 32.7179 74.0626 32.42 73.9886 32.1325C73.9198 31.8842 73.7704 31.665 73.5631 31.5089C73.2757 31.3315 72.9387 31.2486 72.6006 31.2721C72.2333 31.2583 71.8688 31.3399 71.5435 31.5089C71.2727 31.6626 71.0415 31.876 70.8681 32.1325C70.6928 32.4038 70.5627 32.7011 70.483 33.0131C70.3952 33.3466 70.3209 33.6802 70.2635 34.0337C70.2061 34.3872 70.1655 34.7208 70.1418 35.0543C70.1181 35.3541 70.149 35.6557 70.233 35.9448C70.3167 36.1995 70.4844 36.419 70.7093 36.5685C71.0016 36.7461 71.3429 36.8289 71.6853 36.8053C72.0476 36.8228 72.4077 36.7409 72.7256 36.5685C72.9863 36.4144 73.2044 36.199 73.3605 35.9415C73.526 35.6645 73.6478 35.3642 73.7218 35.0509C73.7994 34.7208 73.8703 34.3839 73.9277 34.0337Z" fill="white"/>
<path d="M85.9477 32.3761C85.6842 32.3761 85.4039 32.3761 85.1101 32.3761C84.8118 32.3942 84.5149 32.432 84.2218 32.4895C83.9446 32.5411 83.6801 32.6441 83.4417 32.793L82.4825 38.5731H79.389L80.8176 29.998H83.6106L83.4653 30.8818C83.8243 30.6596 84.2016 30.4677 84.5933 30.3082C84.895 30.1868 85.207 30.092 85.5255 30.0247C85.7809 29.9683 86.0408 29.9348 86.3022 29.9246H86.9777L86.569 32.3727L85.9477 32.3761Z" fill="white"/>
<path d="M96.5658 29.8679C96.9755 29.8715 97.38 29.9578 97.7546 30.1214C98.1517 30.2903 98.4741 30.5945 98.6631 30.9786L99.6527 30.545C99.9608 30.4179 100.275 30.3066 100.595 30.2114C100.909 30.1121 101.229 30.0341 101.554 29.978C101.895 29.9153 102.241 29.884 102.588 29.8846C102.893 29.8869 103.196 29.9365 103.486 30.0313C103.784 30.127 104.057 30.2865 104.286 30.4983C104.525 30.727 104.7 31.0132 104.793 31.3288C104.904 31.7371 104.917 32.1651 104.833 32.5795L103.82 38.6064H100.713L101.581 33.3633C101.604 33.2366 101.617 33.1084 101.622 32.9798C101.63 32.8345 101.603 32.6894 101.544 32.5562C101.474 32.4172 101.365 32.3013 101.23 32.2226C101.028 32.1189 100.802 32.0716 100.575 32.0859C100.4 32.0873 100.226 32.1029 100.055 32.1326C99.8689 32.1659 99.6965 32.2026 99.531 32.2393C99.3793 32.273 99.2294 32.3142 99.0818 32.3627C98.9467 32.4061 98.8557 32.4395 98.8084 32.4595L97.7952 38.6164H94.688L95.5627 33.3566C95.5852 33.2299 95.5988 33.1017 95.6033 32.9731C95.6097 32.8279 95.5832 32.6832 95.5256 32.5495C95.4556 32.4097 95.3451 32.2936 95.2082 32.216C95.0061 32.1133 94.7798 32.0661 94.553 32.0792C94.3808 32.0804 94.2091 32.096 94.0396 32.1259C93.864 32.1626 93.7018 32.196 93.5363 32.2393C93.3708 32.2827 93.229 32.3294 93.1007 32.3727L92.8338 32.4694L91.8206 38.6265H88.7305L90.1558 30.0513H92.9488L92.8035 30.9352C93.1007 30.8018 93.3945 30.675 93.6849 30.5516C93.9724 30.4248 94.2668 30.3134 94.5665 30.2181C94.8718 30.1222 95.1831 30.0464 95.4986 29.9913C95.8496 29.9175 96.207 29.8762 96.5658 29.8679Z" fill="white"/>
<path d="M117.789 34.5073C117.691 35.2293 117.415 35.9165 116.985 36.5085C116.598 37.019 116.108 37.4449 115.546 37.7592C114.974 38.0782 114.354 38.3034 113.709 38.4263C113.053 38.5494 112.387 38.612 111.72 38.6131C111.2 38.6131 110.707 38.5898 110.2 38.5464C109.693 38.5031 109.264 38.4563 108.876 38.4097C108.488 38.363 108.052 38.2896 107.572 38.2029L107.947 35.9348C108.076 35.9682 108.285 36.0116 108.562 36.0649C108.839 36.1183 109.163 36.175 109.518 36.235C109.872 36.2951 110.247 36.3451 110.642 36.3818C111.016 36.4206 111.391 36.4406 111.767 36.4418C112.046 36.4407 112.325 36.4207 112.601 36.3818C112.879 36.3491 113.151 36.2819 113.412 36.1816C113.651 36.0892 113.87 35.9522 114.057 35.7781C114.241 35.6083 114.36 35.3809 114.395 35.1344C114.425 35.016 114.423 34.8918 114.389 34.7744C114.354 34.6571 114.289 34.5511 114.199 34.4673C113.995 34.3083 113.759 34.1946 113.506 34.1338C113.209 34.0519 112.905 33.9972 112.598 33.9703C112.277 33.9436 112 33.907 111.764 33.867C111.311 33.7889 110.865 33.6774 110.43 33.5334C110.039 33.4121 109.678 33.2122 109.369 32.9464C109.076 32.6815 108.859 32.3458 108.738 31.9725C108.599 31.495 108.58 30.9912 108.684 30.5049C108.76 29.979 108.937 29.4721 109.204 29.0107C109.438 28.6111 109.744 28.2564 110.105 27.9634C110.452 27.6904 110.835 27.4659 111.244 27.2964C111.638 27.1329 112.046 27.0046 112.463 26.9128C112.849 26.8292 113.24 26.7724 113.635 26.7427C114.006 26.716 114.334 26.7027 114.607 26.7027C115.083 26.7027 115.539 26.7027 115.958 26.7494C116.377 26.7961 116.779 26.8228 117.113 26.8661C117.448 26.9095 117.816 26.9629 118.211 27.0296L117.839 29.2642C117.424 29.1775 117.056 29.1075 116.738 29.0608C116.421 29.0141 116.083 28.9674 115.725 28.9207C115.389 28.8794 115.051 28.8582 114.712 28.8573C114.547 28.8573 114.324 28.8573 114.037 28.8907C113.753 28.914 113.472 28.9653 113.199 29.0441C112.93 29.1218 112.677 29.2473 112.453 29.4143C112.235 29.5763 112.09 29.8155 112.047 30.0814C112.023 30.1834 112.028 30.29 112.062 30.3894C112.095 30.4889 112.156 30.5773 112.236 30.645C112.436 30.8006 112.666 30.9141 112.912 30.9786C113.238 31.0671 113.568 31.1383 113.901 31.192C114.276 31.2521 114.665 31.3221 115.056 31.4022C115.443 31.4876 115.823 31.599 116.195 31.7357C116.538 31.8626 116.854 32.0515 117.127 32.2927C117.391 32.5381 117.591 32.8439 117.708 33.1832C117.843 33.6115 117.871 34.066 117.789 34.5073Z" fill="white"/>
<path d="M124.091 38.5898C123.633 38.6033 123.176 38.5402 122.74 38.403C122.428 38.2984 122.159 38.0986 121.97 37.8327C121.787 37.5431 121.688 37.2098 121.683 36.8687C121.667 36.4162 121.701 35.9633 121.784 35.5179L122.351 32.1059H120.599L120.936 30.0147H122.692L123.03 28.0402L126.269 26.8628L125.742 30.0147H128.488L128.15 32.0892H125.408L124.888 35.2111C124.844 35.4308 124.836 35.656 124.864 35.8782C124.883 36.028 124.949 36.1681 125.053 36.2784C125.153 36.3741 125.281 36.437 125.418 36.4585C125.591 36.4869 125.766 36.5003 125.941 36.4985H127.482L127.144 38.5731L124.091 38.5898Z" fill="white"/>
<path d="M137.441 38.4497C137.002 38.4864 136.536 38.5197 136.036 38.5464C135.536 38.5731 135.084 38.5898 134.685 38.5898H133.703C133.345 38.5898 132.993 38.5664 132.649 38.5197C132.312 38.4753 131.981 38.3983 131.659 38.2896C131.361 38.1892 131.09 38.0239 130.866 37.8059C130.638 37.5804 130.473 37.2998 130.389 36.9921C130.288 36.5821 130.28 36.1549 130.366 35.7414C130.425 35.3053 130.588 34.8893 130.842 34.5273C131.07 34.2106 131.361 33.9429 131.696 33.7402C132.048 33.5323 132.431 33.3815 132.831 33.2933C133.261 33.1943 133.698 33.1285 134.138 33.0965C134.587 33.0631 135.04 33.0464 135.489 33.0464H136.796C136.839 32.8098 136.859 32.5698 136.857 32.3294C136.859 32.1399 136.796 31.9553 136.678 31.8057C136.53 31.6374 136.331 31.5205 136.11 31.4722C135.737 31.3931 135.354 31.3584 134.972 31.3688C134.611 31.3688 134.246 31.3688 133.885 31.4088C133.524 31.4489 133.189 31.4722 132.892 31.5055L131.879 31.6456L132.166 29.9146C132.595 29.8512 132.99 29.7979 133.348 29.7612C133.706 29.7245 134.121 29.6878 134.591 29.6545C135.06 29.6211 135.547 29.6044 136.053 29.6044C136.56 29.6044 137.066 29.6278 137.58 29.6778C138.049 29.716 138.507 29.8404 138.931 30.0447C139.309 30.2344 139.617 30.5366 139.812 30.9085C140.024 31.4048 140.072 31.9549 139.947 32.4795L138.978 38.3096C138.39 38.3696 137.877 38.413 137.441 38.4497ZM136.577 34.6874H136.29C136.165 34.6874 136.036 34.6874 135.901 34.6874H135.273C135.064 34.6874 134.861 34.6875 134.658 34.7108C134.467 34.7233 134.279 34.7708 134.104 34.8509C133.937 34.9271 133.79 35.0414 133.675 35.1844C133.545 35.3674 133.461 35.5792 133.432 35.8014C133.384 36.0139 133.395 36.2355 133.466 36.4418C133.531 36.5853 133.643 36.7028 133.783 36.7753C133.939 36.8564 134.111 36.9041 134.287 36.9154C134.49 36.9335 134.694 36.9412 134.898 36.9388C135.107 36.9388 135.327 36.9388 135.574 36.9154C135.82 36.8921 136.029 36.8754 136.232 36.842L136.577 34.6874Z" fill="white"/>
<path d="M148.691 32.3761C148.427 32.3761 148.147 32.3761 147.853 32.3761C147.555 32.3942 147.258 32.432 146.965 32.4895C146.689 32.5411 146.425 32.6441 146.188 32.793L145.226 38.5731H142.132L143.561 29.998H146.354L146.208 30.8818C146.567 30.6589 146.945 30.467 147.337 30.3082C147.638 30.1868 147.95 30.092 148.269 30.0247C148.524 29.9685 148.784 29.935 149.046 29.9246H149.721L149.312 32.3727L148.691 32.3761Z" fill="white"/>
<path d="M21.0261 13.1513L16.8686 21.0694C18.4312 19.9949 20.0525 19.0061 21.7251 18.1076L21.0261 13.1513Z" fill="white"/>
<path d="M43.3229 0.000181481H10.1005C9.10989 0.000817915 8.15094 0.344681 7.39062 0.971828C6.6303 1.59898 6.11687 2.46967 5.93977 3.43223L1.06629 30.058C2.13351 29.8179 3.78496 29.4777 5.91602 29.1408L17.0611 7.94492C17.0611 7.94492 17.5846 6.58409 19.0098 6.58409H25.8252C26.2278 6.55496 26.6266 6.67844 26.9403 6.92939C27.254 7.18033 27.4591 7.5399 27.5138 7.93491L28.527 15.0692C30.5558 14.331 32.6304 13.7216 34.7379 13.2447L35.1802 11.3236C35.2597 10.9574 35.4352 10.618 35.6888 10.3395C35.9424 10.061 36.2654 9.8529 36.6258 9.73599C37.4025 9.51252 38.1861 9.35573 38.9528 9.20564L39.1417 8.33179C39.2333 7.79063 39.4961 7.29202 39.8922 6.90736C40.2884 6.5227 40.7978 6.27178 41.3472 6.19054C41.8883 6.09741 42.436 6.04609 42.9852 6.03709L42.3807 8.68201C43.3939 8.56861 44.3462 8.49855 45.2243 8.44852L46.1666 3.32548C46.2418 2.91625 46.2244 2.49567 46.1158 2.09383C46.0072 1.69199 45.8099 1.31882 45.5381 1.00106C45.2664 0.683302 44.9269 0.428818 44.5439 0.255786C44.1609 0.0827536 43.7441 -0.00453553 43.3229 0.000181481Z" fill="white"/>
<path d="M0.877163 31.0986L0.046364 35.6247C-0.0414625 36.1039 -0.00408868 36.5974 0.154873 37.0584C0.313834 37.5194 0.589115 37.9328 0.954835 38.2595L0.98864 38.2062C1.32637 37.6192 1.69784 37.0488 2.05921 36.4852L5.35207 30.2148C3.30543 30.565 1.77552 30.8985 0.877163 31.0986Z" fill="white"/>
<path d="M23.1098 27.9634L22.4547 23.294C20.5571 24.7371 18.7701 26.3168 17.1084 28.0201C19.0031 27.9568 21.0092 27.9267 23.1098 27.9634Z" fill="white"/>
<path d="M41.2154 30.0947L44.6265 11.5403C43.5897 11.5904 42.6002 11.6671 41.6411 11.7838L41.3033 13.3181C41.3033 13.3181 41.1277 14.809 39.3208 15.1892L38.588 15.3393C38.1827 15.4293 37.8214 15.516 37.5242 15.5961L38.23 12.3675C37.2532 12.5858 36.2883 12.853 35.339 13.168L34.6635 15.7796C34.5672 16.1168 34.3959 16.4285 34.1622 16.6922C33.9285 16.9559 33.6383 17.1648 33.3126 17.3038C31.8615 17.8433 30.4429 18.4647 29.064 19.1649L30.3608 28.3737C34.0122 28.7197 37.6378 29.2945 41.2154 30.0947Z" fill="white"/>
<path d="M16.1391 29.0507C13.3302 32.0753 10.8898 35.4145 8.86785 39H35.8862C36.9193 38.9993 37.9193 38.6408 38.7123 37.9868C39.5053 37.3329 40.041 36.425 40.226 35.4212L41.0298 31.0519C32.8657 29.2565 24.4897 28.5831 16.1391 29.0507Z" fill="white"/>
</svg>
